<svg fill="none" height="732" viewBox="0 0 323 732" width="323" xmlns="http://www.w3.org/2000/svg" xmlns:xlink="http://www.w3.org/1999/xlink"><clipPath id="a"><path d="m0 0h323v732h-323z"/></clipPath><g clip-path="url(#a)" fill="#46494e"><path d="m80.65 730.3c-.2-.4-1.75-.95-3.4-1.2-3.25-.55-6.1-1.45-11.5-3.6-1.9-.75-4.5-1.55-5.75-1.75-2.4-.4-2.85-.6-11.75-5.2-3.3-1.7-3.5-1.85-9.85-8.25-2.95-3-5.4-5.85-5.4-6.3s-.25-1.05-.55-1.35c-1.35-1.35-4.8-8.45-5.8-11.9-.85-2.85-1.8-8.75-2.6-15.9-.3-2.7-1-6-1.55-7.25-2-4.7-5-18.1-5-22.35 0-2.2-.25-5.55-.55-7.5-.75-5.3-1-15.15-.45-18.25.25-1.5.6-5.15.75-8.1.3-7.25 1.4-11.65 5-19.9 3.45-8 4.95-10.45 9.25-15.25 6.2-6.85 10.7-10.85 18.65-16.5 1.15-.8 3.6-2.55 5.4-3.85 1.85-1.35 3.65-2.4 4.05-2.4.45 0 1.35-.45 2.05-1s1.7-1 2.2-1 1.7-.4 2.65-.95c.95-.5 2.7-1.1 3.85-1.25 1.15-.2 2.35-.7 2.65-1.1.35-.35 1.4-.8 2.45-.95 1-.2 2.4-.65 3.15-1.05.7-.4 2.6-.9 4.25-1.15 1.6-.25 4.6-.85 6.65-1.25 5.95-1.25 18.2-1.05 26.25.45 9.5 1.75 13.4 2.7 14.3 3.55 1 .9 4.6.95 4.35.1-.15-.35-.9-.85-1.7-1.1-.8-.2-2.35-.8-3.45-1.3-2.55-1.15-5-2-7.5-2.6-1.1-.3-2.85-.85-3.9-1.2-1-.4-3-.7-4.4-.7-2.3 0-5.05-.5-13.45-2.4-1.25-.3-3.6-1-5.25-1.6-1.65-.55-4.45-1.4-6.2-1.8s-4.65-1.4-6.45-2.25c-2.85-1.3-3.8-1.45-8.05-1.45-2.7 0-6 .35-7.55.75-1.5.45-4.2 1.1-6 1.5-1.8.35-4.15.9-5.25 1.2-5.5 1.35-11.3 2.5-13.75 2.8-1.5.15-3.75.75-4.9 1.35-2 .95-2.8 1-9.5.75-7.25-.25-11.6-1-15.1-2.65-4.44997-2.05-6.39997-3.65-8.79997-7.2-2.250003-3.35-2.250002-3.45-2.550002-8.55-.25-4.65-.15-5.45.750002-7.2 1.25-2.4 5.85-7.25 6.85-7.25s.95 1.2-.05 2.05c-.4.35-1.1 1.3-1.55 2.1-.7 1.35-.65 1.75.3 4.85 1.3 4.1 3.39997 7.1 5.49997 8 .85.35 1.55.8 1.55 1 0 .55 5.65 4.3 8.3 5.5 1.35.6 3.45 1.25 4.7 1.5 1.25.2 4.4.8 7 1.25 5.7 1.05 11.35.85 17.75-.6 8.75-2.05 13.05-2.8 16.5-3 6.25-.3 7.15-.9 3.9-2.6-1.05-.55-3.9-2.85-6.35-5.1-3.65-3.4-4.7-4.8-6.05-7.7-2.15-4.65-2.85-7.2-3.2-11.75l-.3-3.75-1.75-.1c-3.7-.3-9.1-1.35-9.7-1.9-.3-.35-1.15-.8-1.8-1-2.15-.7-7-5.4-10-9.75-1-1.5-2.7-3.65-3.7-4.75-1.05-1.1-2.45-3.1-3.1-4.5-.7-1.35-1.45-2.85-1.7-3.25-1.35-2.35-2.5-5.2-2.5-6.25 0-.65-.25-1.35-.5-1.5-.3-.15-.5-.8-.5-1.45 0-.6-.65-3.05-1.45-5.35-1.65-4.95-2.65-15.25-2.25-23.7.1-2.75.25-11.05.3-18.5.1-11.75-.05-14.5-1.05-21.25-1.3-8.65-1.9-10.2-5.65-14.35l-2.54997-2.8 1.2-.9c2.09997-1.6 3.64997-1.1 9.04997 2.95 4.55 3.35 8.75 8.05 12.6 14.05 1.95 3.1 5.7 11.05 6.25 13.4.25 1.05.9 3.6 1.5 5.65.55 2.05 1.05 4.9 1.05 6.25 0 1.4.35 4.75.8 7.5.4 2.75.95 7.8 1.2 11.25.35 5.4 1 11.7 2.3 23.5.2 1.5.85 3.65 1.5 4.75.6 1.1 1.6 3.3 2.2 4.9.6 1.55 1.6 3.5 2.3 4.3.65.8 1.2 2.1 1.2 2.9 0 2.5 5.45 9.65 7.3 9.65 1 0 .9-.85-.85-5.8-2.85-8.25-5.4-17.45-6.45-23.45-.3-1.65-.8-4.15-1.1-5.6-.75-3.55-.75-17.3 0-23.4 1.3-11 3.1-18.35 6.35-26.3 1.3-3.15 2.95-7.4 3.7-9.45s2.05-5.2 2.9-7c.8-1.8 2-4.95 2.6-7s1.3-4.45 1.55-5.3c.3-.85.5-2.35.5-3.4 0-1.5.15-1.85.9-1.7.6.1.95.85 1.15 2.7.4 3 .95 4.15 3.7 7.45 3.25 3.9 11.25 17.8 11.25 19.55 0 .45.35 1.4.75 2.1 1 1.9 2.75 5.95 2.75 6.5 0 .25.35 1.15.8 2 1.85 3.8 3.9 21.45 3.4 29.7-.45 7.35-.7 9.95-1.45 15.4-1.55 11.5-2.65 17.85-3.25 19.05-.3.5-.5 1.45-.5 2.15 0 1.95-2.85 10.5-4 11.95-1.25 1.55-1.25 1.85-.1 1.85 2 0 5-4 8.1-10.8 1.4-3.15 4.5-15.35 5.25-20.7.15-1.25.65-4.4 1.05-7 1.45-9.8 1.7-11.95 1.9-19.25.4-13.25 2-22.1 5.15-28.25.35-.7.65-1.5.65-1.8s.35-.85.8-1.25c.4-.35 1.2-1.45 1.7-2.5.55-1 2.75-3.95 4.95-6.55 3.85-4.65 5.75-6.15 11.55-9.15 1.5-.8 3.05-1.75 3.4-2.1.8-.75 1.9-.85 2.35-.15.35.55-1 3.9-2.05 5.05-1.15 1.25-3.5 11-5.05 20.8-1.05 6.9-1.35 10.4-1.45 19.65-.15 10.5-.9 18.9-2.1 23.75-.3 1.1-.8 3.35-1.1 5-.8 4.1-1.9 7.5-3.3 10.65-.65 1.45-1.2 3.1-1.2 3.7s-.6 2.05-1.3 3.3c-.7 1.2-1.5 2.8-1.7 3.5-1.2 3.85-2.6 6.9-3.7 8.05-.65.7-1.55 2.15-1.95 3.15-1.3 3.1-6.65 7.85-13.5 11.85-1.6 1-2.95 1.3-6.35 1.45-2.35.1-4.5.4-4.8.65s-.7 1.4-.9 2.6c-.4 2.6-3.15 10.95-4.4 13.5-1.05 2.05-1.15 1.5 1.4 6.4 1.8 3.4 9.2 6.45 24.2 10 2.6.6 6.05 1.5 7.65 2.05 1.55.5 3.6.9 4.55.9.9 0 2.65.35 3.8.75s3 .75 4.1.75c2.5 0 4.65.85 17.35 6.95 2.6 1.2 7.3 5.15 9.45 7.9 2.65 3.35 7.55 10.85 9 13.9.7 1.35 1.55 2.75 1.9 3.15.4.35.7.9.7 1.15 0 .65 3.35.55 3.8-.1.15-.3-.25-1.05-.95-1.65-1.05-.9-1.3-1.65-1.75-6.05-.55-5.3-2.4-11.55-4.1-13.85-.6-.8-1.45-2.4-1.95-3.6-1.05-2.35-3.8-5.8-4.75-5.8-.85 0-5.35-2.45-7-3.85-.8-.65-3.95-2.45-7-3.95-5.95-2.9-7.65-4.4-10.05-8.75-1.8-3.35-2.7-7.6-2.75-12.9 0-8.35 2.9-15 9.95-22.8 2.5-2.75 4.55-5.25 4.55-5.55 0-.9 1.75-2.2 2.9-2.2 1.35 0 1.45 1.6.4 4.1-1.2 2.7-3.3 10.95-3.6 14.15-.2 2.2.05 4.65.95 9.15 1.65 8 3.3 10.6 12.05 19.35 7.8 7.75 9.15 9.4 10.9 13.75 1.1 2.65 1.55 3.25 2.45 3.25.8 0 1.25-.4 1.45-1.25.45-1.55 3.25-7.2 5.75-11.6 1.05-1.85 3.5-5 5.4-7s3.75-4.25 4.15-5c.4-.8.9-1.4 1.1-1.4s1.05-1.5 1.85-3.35c1.5-3.4 1.5-3.45 1.5-12.9-.05-8.4-.15-9.9-1.15-13.05-1.2-3.85-1.4-6.45-.55-6.95 1.15-.75 6.3 5.5 9.65 11.75.65 1.25 1.95 3.7 2.9 5.5 2.45 4.55 3.8 10.85 2.95 13.95-1.45 5.55-8.35 17.05-10.25 17.05-.75 0-2.8 2.1-2.8 2.85 0 .3-.75 1.15-1.6 1.85-4.5 3.55-11.15 10.1-12.5 12.3-.5.85-1.1 1.5-1.35 1.5-.2 0-.55.65-.7 1.5-.2.8-1 2.4-1.8 3.55-1.5 2.05-3.65 8.2-4.3 12.35-.3 1.9-.25 2.1.7 2.1.65 0 1.3-.6 1.85-1.6.45-.9 1.55-2.45 2.4-3.45s2.45-2.9 3.55-4.25c2.85-3.45 6.3-6.7 7.1-6.7.4 0 .8-.3.95-.7.15-.35 1.4-1.4 2.85-2.35 1.45-.9 2.7-1.8 2.85-2 .85-1.25 11.3-6.95 12.7-6.95.3 0 1.6-.55 2.9-1.25s3.05-1.25 3.85-1.25c.85 0 2.5-.45 3.65-.95 1.2-.55 3.5-1.2 5.15-1.45 4.1-.7 9.65-2.05 11.75-2.9.95-.4 4.1-1.35 7-2.15 4.6-1.25 7.6-2.55 9.95-4.3 1.75-1.3 6.05-5.85 6.05-6.4 0-.35-.75-1.35-1.7-2.25-2.4-2.25-4.8-6.85-4.8-9.1 0-2.5-1.55-4.35-3.9-4.8-1-.2-3.9-1.45-6.4-2.8-2.5-1.3-5.2-2.4-6-2.4-1.15 0-2.15-.75-4.95-3.7-4.8-5-9.2-10.6-10.1-12.7-.4-.95-1.7-5.15-2.85-9.3-1.9-6.55-2.25-8.65-2.75-15.8-.3-4.55-.8-10.05-1.05-12.25-.3-2.2-.5-8.45-.5-13.85 0-9.85-1.2-25.9-2.05-27.5-.25-.45-.45-1.25-.45-1.75 0-1.85-4.9-10.9-7.25-13.4-3.2-3.45-3.6-4.25-2.45-5.1 1.2-.9 1.05-.9 6.35 1.15 6.9 2.75 12 7.1 18.65 15.85 2.6 3.45 3.8 3.1 4.4-1.4.7-5 4.8-11.25 7.4-11.25 1.45 0 4.1 2.65 6.3 6.4 1.8 2.95 2.9 7 2.15 7.75-.9.9-1.8-.05-2.7-3-1.15-3.75-4.15-7.85-5.95-8.05-1.05-.15-1.5.25-2.55 2-.7 1.2-1.75 3.85-2.35 5.9-1.3 4.25-1.75 5-3.05 5-1 0-1.25.95-.5 1.8.95.95 3.75 9.55 6.05 18.7 1.1 4.55 1.5 7.4 1.75 13.75.2 4.4.55 8.5.8 9.15s.55 3.85.7 7.05c.4 9.9 1.35 14.95 4.5 24.3 4.1 12.05 13.3 24.3 15.55 20.7.15-.3-.25-1.15-.95-1.85-1.15-1.3-5.35-7.9-5.35-8.5 0-.15-.3-.65-.7-1.05-1.3-1.5-4.65-12.75-6-20.3-.7-4.1-1.55-8.5-1.8-9.65-1.05-4.4-2.2-15.45-2.2-20.35.05-4.95.65-10.4 1.6-14.75.3-1.25.9-4.6 1.4-7.5.45-2.9 1.35-6.7 1.95-8.5 2.55-7.6 6.4-17.35 9-23.05 1.55-3.35 3.5-8.25 4.25-10.85.8-2.6 1.7-5 1.95-5.25.3-.3.55-.95.55-1.45 0-.55.35-.9 1-.9.7 0 1.05.45 1.3 1.9.2 1 .65 2.75 1.05 3.85s1.15 3.65 1.65 5.65c.55 2 1.3 4.15 1.75 4.75.4.6.75 1.4.75 1.85 0 .4 1 2.75 2.25 5.25 1.25 2.45 2.25 4.8 2.25 5.15s.7 1.95 1.5 3.6c.85 1.65 1.5 3.3 1.5 3.65s.6 1.8 1.3 3.15c1.7 3.25 4.2 10.25 4.95 13.95.35 1.65 1 4.45 1.4 6.25.45 1.8 1.05 5.15 1.4 7.5.75 4.85.75 19.75 0 22.15-.25.9-.75 3.2-1.1 5.1-1.3 7.8-4.95 19.85-7.95 26.5-.95 2.05-2.5 6.95-2.25 7.15.65.65 5.8-4 8.3-7.5 1.45-2 3.75-6.6 5.25-10.4.7-1.8 1.7-4.25 2.2-5.5 1.9-4.6 2.65-10.65 2.3-18.75-.15-4.1-.45-11.2-.6-15.7-.3-8.15.3-18.3 1.4-23.05.3-1.25 1.15-3.6 1.95-5.25 1.35-2.95 1.4-3 .45-4-.55-.55-1.55-3.05-2.25-5.5-.95-3.4-1.65-4.85-2.8-5.9-1.45-1.35-1.5-1.35-2.95-.5-1.05.6-1.95 2-3.2 4.85-1 2.25-1.9 4.65-2.1 5.45-.3 1.4-1.95 2.7-2.4 1.9-.5-.75 2.6-9 4.25-11.45.9-1.3 2.2-3.2 2.9-4.2.95-1.45 1.55-1.9 2.65-1.9 1.15 0 1.4.2 1.4 1.15 0 .65.55 1.7 1.2 2.3 1.3 1.2 3.8 8.1 3.8 10.35 0 1.45 1.2 2.1 2.25 1.2.4-.3 1.4-1.8 2.25-3.3 1.6-2.85 6.3-7.95 8.8-9.55 1.4-.9 3.25-2.4 6.35-5.25 1.65-1.55 4.2-1.9 4.65-.65.3.7 0 1.75-2.8 10.5-1.1 3.5-1.65 6.2-1.75 9-.1 2.2-.55 5.7-1 7.75-1.25 5.65-1.25 25.75 0 29.25.5 1.45.9 4.45 1.05 7.2.05 2.6.3 5.35.45 6.15.2.9.05 1.85-.4 2.55-.4.6-.85 2-1 3.1-.8 5.55-1.4 8.7-2.05 10.5-.4 1.1-1 3.25-1.35 4.75-.3 1.5-1 3.55-1.5 4.5-.55.95-.95 1.9-.95 2.1s-1.25 2.45-2.8 5c-3.8 6.4-7.7 10.25-13.15 12.95-2.35 1.15-5 2.65-5.85 3.3-.85.6-1.85 1.15-2.25 1.15s-1.25.4-1.95.85c-.65.45-1.95.95-2.9 1.1-2 .35-2.2.65-3.4 5.05-1.1 4.05-1.95 5.85-3.6 7.65-1.2 1.25-5.9 3.85-7 3.85-.2 0-1.5 1.3-2.8 2.9-1.3 1.55-3.25 3.5-4.35 4.3-1.05.85-1.95 1.65-1.95 1.85 0 .5 1.95.95 4.1.95 1 0 3.25.45 5 1 1.7.55 3.85 1 4.7 1s2.55.35 3.7.75 3 .75 4.1.75c1.05 0 2.75.35 3.8.8 2.7 1.15 13.95 1.25 17.35.1 1.4-.45 3.4-1.05 4.5-1.3 2.9-.75 6.25-2 8.3-3.1 1-.55 2.1-1 2.45-1 .75 0 4.35-2.95 8-6.65 2.35-2.4 2.95-3.35 3.25-5.15.15-1.2.55-2.3.8-2.5.3-.15.45-1.45.35-2.9-.15-2.3-.05-2.55 1-2.7.95-.15 1.1.05 1.1 1.35 0 .95.35 1.75.9 2.1.8.5.85 1.15.7 5.4-.15 4-.45 5.5-1.95 9.25-1.4 3.65-2.25 4.95-4.45 7.15-1.45 1.45-2.8 2.65-3 2.65-.15 0-.85.45-1.55 1s-1.65 1-2.1 1-1.65.45-2.65 1c-1 .5-4.2 1.45-7.1 2-8.5 1.7-15.3 1.15-22.05-1.75-.8-.35-3.2-1.15-5.25-1.75s-4.4-1.45-5.25-1.8c-.8-.4-2.75-.95-4.25-1.25s-2.95-.75-3.25-.95c-.25-.2-1.95-.55-3.7-.7-1.8-.2-3.85-.7-4.6-1.1-2.35-1.2-6.6-1.45-8.5-.45-2 1-6.25 2.55-9.7 3.55-1.35.4-3.2 1.05-4.1 1.45-.85.4-2.35.75-3.35.75-.95 0-2.85.4-4.15.95-1.3.5-3.65 1.1-5.15 1.3s-3.5.65-4.45 1.05c-.9.4-2.2.7-2.85.7s-1.2.25-1.2.5c0 .35 1.75.35 5.15.15 2.8-.25 10.05-.4 16.1-.4 9.35 0 11.3.15 13.15.9 1.15.45 2.65.85 3.3.85 1.45 0 7.6 1.8 9.45 2.75.8.4 1.7.75 2 .75 1.1.05 6.55 2.75 9.35 4.6 3.75 2.5 14.1 11.75 14.95 13.35.4.7 3 3.9 5.75 7.1 2.8 3.15 6.4 7.55 8.05 9.75 2.95 3.85 8.2 12.75 9.6 16.2.4.95 1 2.45 1.4 3.25 1.6 3.5 2.95 8.75 3.75 14.85.25 1.9.55 3.6.75 3.85.5.9.45 14.8-.1 17.3-.35 1.4-.85 4.1-1.15 6-.65 4.1-1.05 5.95-2.5 11.75-.6 2.35-1.2 4.8-1.35 5.5s-.5 1.5-.7 1.8c-.25.3-1.2 2.5-2.2 4.85-.95 2.4-2.65 5.5-3.75 6.9s-2.15 3.15-2.3 3.85c-.15.75-.8 3.15-1.5 5.4-.7 2.35-1.2 5.25-1.2 7.05 0 1.65-.35 3.85-.75 4.85-.45 1-.75 2.6-.65 3.55.05.95-.25 2.1-.7 2.6-.4.5-1.35 2.15-2.1 3.65-2.6 5.35-6.7 10.85-9.2 12.2-3.7 2.05-8.4 4.3-9 4.3-.35 0-1.15.3-1.75.7s-2 .85-3.1 1.05c-1.1.15-2.45.6-3 1-.6.35-3.15.9-5.75 1.25s-5.5.9-6.45 1.3c-.9.4-2.45.7-3.4.7-1 0-2.3.45-3 1-.95.75-2.05 1-4.2 1-5.15 0-3.6-1.4 6.8-6.05 1.1-.45 2.6-1.4 3.35-2.05 1.5-1.25 4.95-7.75 9.1-16.9 3.75-8.3 7.85-13.15 14.05-16.8 1.4-.8 3.6-2.15 5-3.05 1.35-.9 2.65-1.65 2.9-1.65.85 0 8.45-5.65 11.05-8.2 3.55-3.5 5.25-6.15 7.9-12.55 2.05-4.8 2.8-7.4 4.15-14 .15-.8.5-2.5.8-3.75 1.6-7.65 2.3-16.35 1.5-19.05-.3-1.05-.65-3.85-.8-6.3-.25-4.75-1.35-9.8-3.4-15.4-2.7-7.5-9.6-19.95-12.6-22.75-.7-.65-1.25-1.45-1.25-1.85 0-.6-1.9-2.8-8.1-9.35-1.6-1.65-2.9-3.2-2.9-3.4 0-.7-2.1-1.5-2.6-1s-.25.8 2.7 3.25c1.4 1.15 6.25 10.1 10.2 18.9 3 6.75 3.65 10.85 3.7 23.5 0 9-.1 10.1-1.25 13.95-1.8 5.95-3.25 8.8-6.3 12.45-2 2.4-3.5 3.55-5.95 4.75-3.15 1.55-3.25 1.65-3.4 3.65-.1 1.15.05 3.55.3 5.35.6 4.45-.35 9-2.95 14.05-2.85 5.45-6.1 9.35-9.95 11.9l-3.2 2.1-8.05-.1c-11.7-.15-17.2-1.6-20.25-5.5-.55-.7-1-1.9-1-2.65 0-1.25.2-1.4 2.55-1.7 2.65-.35 5.55-1.5 7.2-2.8.55-.45 2.25-1.35 3.75-2s3.2-1.55 3.75-2c2.05-1.55 4.2-3 4.65-3 .25 0 .95-.6 1.65-1.3.65-.7 2.55-2.3 4.25-3.5 2.7-1.95 3-2.35 3.05-4 .05-1 .5-2.4 1-3.15 4.75-6.45 8.2-20.95 8.9-37.55.5-10.65-.3-14.45-4.65-23.15-3.7-7.35-6.35-11.15-10-14.35-1.3-1.1-3-2.7-3.85-3.45-1.7-1.65-5.1-3.55-6.25-3.55-.45 0-1.2-.3-1.75-.7-.55-.35-2.7-1.4-4.75-2.3-2.05-.85-4.65-2-5.75-2.5-1.1-.55-3.8-1.45-6-2.05s-5.1-1.4-6.5-1.85c-3.2-1-18.6-1.05-28-.1-6.25.6-8.75 1.35-11.25 3.3-.4.3-1.3.75-1.9.95-.65.2-2.2 1.05-3.45 1.9-1.2.9-2.75 1.9-3.4 2.25s-2.5 2.1-4.15 3.85c-2.7 2.95-3.1 3.65-4.25 7.85-.95 3.3-1.4 6.3-1.55 10.35-.1 3.1-.45 5.9-.75 6.2-.85.85-.95.65-1.85-5.15-.15-.95-.9-3.3-1.65-5.25-2.75-6.8-3.55-9.05-3.55-9.65 0-.35-1.2-2.05-2.6-3.85-1.45-1.75-3.2-3.9-3.85-4.75-1.4-1.85-6.9-6.3-10.05-8.15-1.25-.7-3.8-1.6-5.75-1.95-4.65-.85-20.8-.65-22.65.3-.75.35-2.2.8-3.25 1s-3.55 1.25-5.6 2.35c-2 1.05-4.05 1.95-4.5 1.95-1.1 0-6.85 1.85-9.65 3.05-1.15.5-2.45.95-2.9.95-.65 0-4.05 1.55-8.45 3.85-.8.45-2.45 1.6-3.6 2.6-1.3918 1.157-2.7751 2.323-4.15 3.5-2.1 1.75-2.65 2.45-7.95 10.1-4.2 6.1-6.1 10.35-8.05 18.15-1.2 4.9-1.6 7.6-1.6 11.25-.05 9.9 5.2 27.6 10.7 36.05 2.5 3.85 7.45 8.8 11.3 11.35 1.55 1 3.7 2.55 4.75 3.35 1.05.85 2.85 1.8 4 2.1 1.15.35 4.1 1.3 6.5 2.15s5.05 1.55 5.8 1.55c2.95 0 2.9 2.6-.05 4.4-4.35 2.65-7.8 3.5-15.65 3.8-4.7.2-8.25.1-9.5-.25-1.1-.3-3-.7-4.2-1-6.6-1.4-10.95-6.8-14.85-18.45-.65-1.95-.9-4.3-.95-8.1v-5.3l-2-1.6c-1.85-1.4-3.9-3.3-9.8-8.85-2.35-2.25-4.75-6.6-6.25-11.4-.8-2.55-.95-4.5-.9-12.4.05-5.2.3-9.9.55-10.5.95-2.1 1.65-4.7 1.65-6.15 0-1.3 1.1-3.8 4.85-11 .6-1.2 1.55-2.4 2.1-2.65.55-.3 1.15-1 1.3-1.6 1.05-3.25 7.35-10.5 11.05-12.75 1-.6.55-1.7-.7-1.7-1.55 0-9.6 6.45-15.05 12-2.65 2.7-9.05 11.45-9.05 12.35 0 .15-.3.95-.7 1.8-1 2.3-3.05 7.65-4.3 11.05-.6 1.75-1.25 5.25-1.5 8.5-.3 3.05-.75 7.35-1 9.6-.3 2.2-.5 5.6-.5 7.6 0 4.1 1.85 22.95 2.5 25.6 2.75 11.2 4.5 15.95 7 19.15.55.7 2.45 2.15 4.15 3.15s3.45 2.25 3.85 2.75 2.75 1.9 5.25 3.2c2.45 1.25 4.7 2.5 5 2.7.25.25 1.3.7 2.25 1 2.15.7 10.75 7.05 12.6 9.25 3.65 4.4 9.35 13.6 11.8 19 3.35 7.3 5.7 10.9 9.15 14 2.4 2.15 2.55 2.45 2.05 3.55-.65 1.4-2.8 1.75-3.45.55zm-4.7-5.75c.55-.35.35-.85-1-2.55-1.55-1.9-1.85-2.05-3.4-1.8-.95.15-2 .05-2.35-.25-.95-.8-5.95-.35-5.95.55 0 .4.7.85 1.5 1.05 1.75.4 4.05 1.2 7.25 2.45 2.7 1.05 3.05 1.1 3.95.55zm182.3-2.55c1.65-.55 3.65-1.1 4.4-1.25 1.3-.25 1.4-.45 1.1-1.65-.2-.75-.55-2.25-.7-3.35-.45-2.55-.85-3.25-2-3.25-1.35 0-4.6 4.1-5.2 6.6-.2.75-.8 1.6-1.35 1.9-1.25.65-1.3 2-.1 2 .45 0 2.2-.45 3.85-1zm-194.5-4.2c1.55-1.7 1.6-1.7 2.45-.75.65.8 1.2.9 2.7.65 1-.2 1.95-.4 2.05-.5.25-.2-1.65-3.9-2.6-5.05-.3-.4-1.65-.65-3.4-.65h-2.9l-.3 1.9c-.45 2.65-1.1 4.1-1.95 4.1-1.2 0-1.4-.85-.55-2.45.4-.85.75-2 .75-2.6 0-1.05-.15-1.05-2.85-.75-1.6.2-3.4.65-4 1.05s-1.65.75-2.3.75c-1.1 0-2.35.8-2.35 1.55 0 .2.65.5 1.45.7.8.15 1.75.65 2.1 1.05.3.4.95.7 1.4.7s1.6.45 2.55.95c.95.55 2.75 1 3.95 1 1.85.05 2.4-.2 3.8-1.65zm204.8 1.2c.5-.3.95-.85.95-1.25 0-.55.6-.75 2-.75s3.15-.6 5.4-1.8c3.75-2 4.65-2.7 3.55-2.7-.4 0-1.55-.45-2.6-1-2.45-1.3-2.65-1.3-3.35.65-.55 1.55-.6 1.55-1.3.65-.35-.55-.7-1.15-.7-1.35 0-.75-1.7-.9-2.5-.2-.45.4-1.65.75-2.7.75-2.35 0-2.6.7-1.75 4.5.65 3.1 1.15 3.45 3 2.5zm-218.65-6.65c.95-.9 1.1-1.5 1.1-5.1 0-2.2-.25-4.3-.55-4.6-.35-.35-1.5-.2-3.85.65-3.55 1.25-3.95 1.7-4.05 5.1-.05 1.3.35 2 2.1 3.6 2.3 2.15 3.2 2.2 5.25.35zm6.1-2.1c.7-.4 1.85-.7 2.6-.75 1.8 0 1.9-.3 1.3-3.25-.25-1.4-.6-3-.7-3.65-.2-1.05-.45-1.15-3.1-1l-2.85.15-.15 4.65c-.1 4.15-.05 4.6.75 4.6.5-.05 1.45-.35 2.15-.75zm213.5-.45c3.05-.7 2.8-.1 2.6-6.05l-.1-2.8-2.6.35c-4.5.6-4.8.8-5.15 3.95-.4 3.2.25 5.25 1.6 5.25.5-.05 2.15-.35 3.65-.7zm13.35.15c.35-.35.4-1 .2-1.65-.2-.55-.7-2.7-1.05-4.7l-.7-3.7-3.5.35c-1.95.2-3.65.55-3.8.8s-.05 2 .2 3.95c.45 3.2.6 3.55 1.75 3.8.7.15 2.1.55 3.05.95 2.25.85 3.15.9 3.85.2zm-216.6-1c.2-.3-.1-1.45-.65-2.6s-1.25-2.7-1.55-3.45c-.4-1-.9-1.4-1.75-1.4-1.7 0-1.9.55-1.05 3 .4 1.15.75 2.65.75 3.25 0 .65.3 1.3.65 1.4 1.1.5 3.3.35 3.6-.2zm-24.85-2.1c.15-.6-.15-.85-1.05-.85-1.55 0-2 .5-1.25 1.35.75.9 2.1.6 2.3-.5zm-1.1-2.65c1.55-.75 1.7-1 1.7-3 0-1.2-.2-3.15-.5-4.3-.25-1.2-.6-2.75-.75-3.5-.2-1.15-.55-1.4-1.65-1.4-1.95 0-3.7 1.35-3.35 2.55.35 1-.9 1.4-1.5.45-.5-.75-2.25-.6-2.25.25 0 1.2 2.05 4.75 3.05 5.3.65.3 1.25.3 1.9 0 .7-.4 1.1-.35 1.55.2.5.6.45.8-.2 1.05-.45.15-1.25.2-1.8.05-1.5-.4-1.25.9.4 2.1 1.65 1.25 1.35 1.2 3.4.25zm247.15-1.75c.3-.9.45-1.7.35-1.8s-1-.35-2-.5l-1.8-.3v2c0 3.5 2.3 3.9 3.45.6zm-241.6-1.45c.3-1.05 1.4-1.35 1.9-.5.45.75 2.25.6 2.55-.2.15-.4-.3-2.15-.95-3.9-.7-1.7-1.35-3.55-1.55-4.05-.25-.75-.75-.9-2.65-.75-2.75.15-2.65-.25-1.6 6.3.45 2.85.85 4.1 1.35 4.1.4 0 .8-.45.95-1zm225.65-2c1.05-.55 2.25-4.95 1.6-5.6-.95-.95-2.5.15-4.55 3.05-1.1 1.65-2.05 3.1-2.05 3.3 0 .45 3.8-.1 5-.75zm-212.7-.05c.5-.85-.85-1.5-2.45-1.15-1.8.4-2.45-1.1-.95-2.25 1.05-.8 1.05-.8-.9-2.4-2.85-2.45-6.45-2.15-4.3.3.35.45 1.05 2 1.55 3.45l.85 2.6h2.9c1.6 0 3.1-.25 3.3-.55zm221.1-1.05c1.3.05 2.15-.2 2.2-.55 0-.35.1-1.25.15-2.1.05-.8.25-2.35.45-3.35.4-1.75.3-1.9-.65-1.9-.6 0-1.2.35-1.35.75-.35.9-1.75 1-2.55.2-.45-.45-.9-.4-1.85.2-.95.65-1.3 1.4-1.55 3.55-.45 3.3-.1 4 1.7 3.55.7-.2 2.25-.35 3.45-.35zm10.1-.15c.5-.6.45-.8-.2-1-2.6-.8-2.6-.85-.95-1.55 1.25-.55 1.6-1.05 1.9-2.7.4-2.35.2-2.7-1.65-2.8-.75-.05-1.85-.25-2.45-.45-1.4-.45-1.9.6-2.35 4.9-.3 3.2-.25 3.4.8 3.85 1.8.7 4.2.6 4.9-.25zm-254.7-5.8c1.8-.6 3.4-1.35 3.5-1.65.15-.35-.2-1.7-.8-3-.55-1.3-1-3.05-1-3.85s-.2-1.45-.45-1.45-1.85-1.35-3.55-3.05c-4.7-4.65-5.7-3.65-4.5 4.55.85 5.7 1.4 7.8 2.3 8.75.95.95.6.95 4.5-.3zm11.15-2.25c1.95-.4 1.95-.8-.05-1.85-1.85-.95-3-1.65-5-2.95-1.3-.85-2.9-1.2-2.9-.6 0 .5 2.7 4.95 3.25 5.3.6.45 2.6.5 4.7.1zm233.35-.65c.8-.25 2.05-.6 2.85-.75 1.9-.45 1.8-1.8-.15-1.8-1.7 0-3.95 1-4.95 2.2-.8.95-.05 1.05 2.25.35zm12.45-5.3c1.05-2.9 1.1-3.35.4-3.6-.45-.15-1.15-.05-1.6.3-.45.3-1.85 1.25-3.15 2.1-1.95 1.25-2.4 1.8-2.4 3s.2 1.45 1.2 1.45c.8 0 1.3-.35 1.45-1.05.15-.6.5-.9.85-.7.3.2.45.65.3 1-.3.85.75 1.9 1.35 1.3.25-.25.95-1.95 1.6-3.8zm-34.85-10c1.3-.7 2.65-1.25 3-1.25 2.05 0 8.2-7.9 9.85-12.8.8-2.35 1.6-8.95 1.85-15.7.15-2.95.25-3.25 1.3-3.4.65-.1 1.45-.8 1.9-1.7.45-.85 2.75-3.55 5.15-6 5.1-5.1 6.7-8 7.8-13.65.95-4.9.95-7.95 0-17.4-.85-9.15-1.5-10.75-9.6-24.3-2-3.35-10.4-13.35-14.2-16.8-2.4-2.2-7.5-5.75-8.3-5.75-.25 0-.9-.45-1.4-1s-1.25-1-1.7-1-1.45-.4-2.3-.9c-.8-.5-2.15-1.1-3-1.3-.8-.2-1.85-.65-2.25-1.05-.4-.35-1.85-.8-3.25-1-1.35-.15-2.95-.65-3.55-1-.55-.35-2.95-.75-5.25-.9-2.3-.1-7.45-.5-11.45-.8-7.5-.65-14.95-.5-19.25.4-1.35.25-3.85.75-5.45 1.05-1.65.3-3.2.7-3.45.85s-1.75.45-3.25.6c-1.7.2-2.85.55-3 1-.25.75-.6.75 9.05-.25 2.2-.2 4.65-.1 6.9.3 1.9.35 4.4.7 5.6.7 1.95.05 2.1-.05 2.35-1.45.35-1.9 1.7-2 1.9-.1.2 1.85 1.6 2.45 4.6 2.05 2.25-.3 2.5-.45 2.5-1.55 0-.9.25-1.2.9-1.05.55.1.85.65.85 1.65 0 1.4.2 1.55 3.25 2.35 1.8.45 3.85 1.2 4.6 1.65.7.4 1.75.75 2.35.75.95 0 2.05.45 7.85 3.05 1.15.55 2.3.95 2.6.95s.85.3 1.25.7 1.45 1.1 2.4 1.55c2.35 1.1 3.45 1.75 5.7 3.55 1.1.8 3.15 2.2 4.5 3.1 4.15 2.6 8.65 8.1 13.3 16.35 3.7 6.55 4.45 9.15 4.95 16.75.8 11.6.6 17.6-.7 22.65-.7 2.5-1.7 6.95-2.3 9.85s-1.45 5.95-1.85 6.75c-.4.85-1.15 2.85-1.65 4.5-1.1 3.75-4.15 9.2-5.8 10.45-.7.5-2.35 2-3.65 3.25-3 2.9-4.15 3.8-7.55 5.6-1.5.85-4.1 2.3-5.75 3.2-1.65.95-4.9 2.35-7.2 3.05-3.75 1.2-4.1 1.45-3.25 2.05.5.35 1.25.65 1.65.65.45.05 1.6.45 2.55 1 1.5.8 2.8.95 8.65 1 6.4 0 7.05-.1 9.25-1.25zm-170.4-.7c2.15-.4 2.5-1.45.65-1.8-1.3-.3-3.9-1.4-7.25-3.1-1.95-1-3.75-.85-4.15.35-.35 1.1-1.5 1.35-2.05.4-.2-.3.15-.95.75-1.5 1.35-1.05 1.15-2-.8-3.2-4.3-2.65-6.5-4.2-7.35-5.15-1.15-1.25-1.95-1.35-2.8-.3-.35.4-.95.75-1.3.75-.8 0-.95-1.8-.2-2.25.8-.5.6-2.35-.45-3.45-1.95-2.15-5-8-6.8-12.95-2.2-6.05-2.7-6.7-4.25-5.85-.8.45-1.25.45-1.65.05-.45-.45-.15-.95 1-2.05 1.4-1.3 1.55-1.65 1.15-3.1-.2-.9-.55-2.25-.7-3-.25-1.1-.6-1.35-2.2-1.5-2.15-.2-2.6-1.55-.6-1.8 1.75-.25 2.2-.8 1.8-2.3-.25-.95-.7-1.25-1.9-1.4-2.15-.2-2.4-1.3-.45-2.05 1.35-.5 1.55-.8 1.55-2.45 0-1.7-.1-1.85-1.6-2-2-.2-2.25-1.55-.4-1.8 1.95-.3 2.35-.9 2.65-4.25.95-10.15 6.9-23.75 13.9-31.75.8-.9 1.45-1.85 1.45-2.05 0-.7 10.1-9.6 11.45-10.1.65-.25 1.75-.9 2.5-1.4.7-.5 2.1-1.15 3.05-1.45 2.75-.85 6-2.05 7.55-2.85.75-.4 1.85-.75 2.45-.75.55 0 1.9-.45 3-1s2.45-1 3-1c.6 0 2.45-.8 4.15-1.8s4.5-2.25 6.2-2.75c5.65-1.75 4.6-2.15-4.95-1.8-9.45.35-15.6 1.35-18.35 2.9-.9.55-2.7 1.1-4 1.3-1.25.15-2.95.65-3.8 1.15-.8.5-2.35 1.05-3.35 1.2-2.5.45-10 4.35-13.35 6.95-5.35 4.15-7.55 6.6-14.95 16.55-6.4 8.65-9.55 14.35-9.6 17.35 0 .7-.45 2.6-1 4.2-.85 2.45-1 4.2-1 11.4v8.5l2 3.9c1.1 2.15 2 4.25 2 4.6 0 .75 8 8.85 9.35 9.45.5.25 1.8.9 2.85 1.55l1.95 1.1.15 6.25c.15 7.15.95 12.45 2.25 15.05 1.1 2.2 7.4 8.1 10.2 9.55 1.1.6 3 1.2 4.25 1.4 2.85.5 15.8.5 18 .05zm210.4-135.4c.1-.4-.25-.65-.85-.65s-1.05.3-1.05.8c0 .9 1.55.75 1.9-.15zm-225.4-22.65c.45-1.5 1.35-3.55 1.9-4.5 1.45-2.3 1.4-2.75-.35-3.45-.75-.35-2.15-1.4-3.1-2.35-.9-.95-2.15-1.7-2.75-1.7-1.1 0-6.4 4-6.85 5.2-.45 1.15 1.3 4 4.35 6.95 2.45 2.4 3.2 2.9 4.5 2.75 1.35-.15 1.6-.4 2.3-2.9zm188.3-2.3c.4-.9.9-1.75 1.2-1.95 1-.6.45-1.7-1.05-2-1-.25-1.7-.8-2-1.65-.7-1.8-2.45-3.6-3.5-3.6-.45 0-1.7 1.05-2.7 2.3-1.05 1.3-2.65 2.65-3.6 3-.9.4-1.65.9-1.65 1.1.05.2.55 1.35 1.15 2.6.95 1.95 1.4 2.3 3.3 2.75 1.7.4 2.9.35 5.2-.2 2.6-.65 3.05-.95 3.65-2.35zm-9.95-8.3c1.15-1.2 2.5-2.95 3-3.9 1.2-2.15 2.65-2.45 3.65-.8 3.45 5.55 4.75 6.75 6.45 5.85.5-.3 1.05-.85 1.2-1.3.35-.8-.3-1.6-5.5-6.45-3.15-3-3.7-3.3-4.6-2.8-.6.3-1.05.9-1.05 1.3s-1.55 2.35-3.5 4.35c-2.2 2.25-3.5 4-3.5 4.75 0 1.75 1.55 1.35 3.85-1zm-186.6-1.95c1.8-1.4 3.25-2.7 3.25-2.95 0-.2.35-.5.75-.7.7-.25 1.25.15 5.45 3.95 2.2 1.95 3.5 2.2 4.3.8.7-1.4.7-1.4-1.6-2.9-1.2-.75-3-2.1-4.05-3-2.05-1.85-2.65-1.95-4.05-.9-.55.4-1.85.75-2.95.75-3 0-4.6 1.2-5.3 4.05-1.1 4.25-.25 4.4 4.2.9zm201.15-5.8c-.2-1.05-2.25-1.5-3.05-.7-.35.35-.15.65.7 1 1.85.75 2.55.65 2.35-.3zm-12.9-2.15c.5-.25 1.05-1.1 1.25-1.85.6-2.5 3.05-2.95 4.95-.9.65.7 1.5 1.25 1.95 1.25 1.1 0 2.85-3.25 2.85-5.25 0-.9.25-2.3.55-3.1.3-.75.75-2.05.95-2.9.25-.8 1.15-3.2 2-5.25s1.85-5.2 2.25-7c.75-3.9 1.95-8.2 2.75-10.25.85-2.15 1.25-16.1.55-22.1-.3-2.85-1-6.8-1.6-8.75-.6-2-1.35-4.85-1.7-6.3-.4-1.5-1.05-3.75-1.45-5-.45-1.3-1.45-5.15-2.3-8.6-.8-3.45-2.15-8.05-3-10.25-2.5-6.5-3.55-9.4-3.95-11.25-.25-.95-1-3.35-1.75-5.3-.7-1.95-1.3-4.25-1.3-5.1 0-1.6-1.3-2.85-2.3-2.2-.7.45-3.8 9.55-5.65 16.75-.85 3.25-1.9 6.7-2.35 7.75-1.45 3.45-2.15 5.85-2.85 9.85-.4 2.2-1 4.7-1.35 5.5-2.35 5.85-3.4 17-2.75 30.9.3 6.85.5 8.5 1.1 8.7 1.05.4 2.35-.45 2.55-1.65.1-.5.6-1.4 1.1-1.95 1.55-1.7 5.55-10.3 6.8-14.75 1.7-5.95 2.2-7 3.2-7 .7 0 .95.55 1.1 2.4.3 3 3.1 9.65 4.8 11.5 2.7 2.9 6.95 7.9 8.05 9.5 2 2.85 3.45 10.5 1.95 10-.35-.15-.85-.9-1.05-1.7-.85-2.95-3.4-7.5-5.7-10.3-5.55-6.55-6.95-8.5-7.7-10.65-1.4-4-2.35-4.2-3.4-.65-.75 2.6-2.75 6.7-4.85 10.15-.85 1.35-1.7 2.95-1.9 3.5-.15.55-.95 1.75-1.8 2.65-.8.9-1.5 1.95-1.5 2.25 0 .35-.3 1.15-.65 1.85-1.25 2.35-1.25 3.5-.35 9.65.95 6.3 1.8 9.2 4.4 14.9 2.05 4.6 6.1 11.45 6.7 11.45.25 0 .9-.2 1.4-.5zm-174.95-1.5c.5-.3.95-1.05.95-1.7s.7-1.9 1.5-2.8c.85-.9 1.5-1.9 1.5-2.3 0-.35.6-2.45 1.3-4.55 1.35-4 2.65-8.6 3-10.4 1.55-9 1.6-11.7.05-13.15-.65-.65-2.75-3.4-4.65-6.15s-4.45-6.35-5.65-8.05c-1.2-1.65-2.4-4.05-2.75-5.35-.75-3.15-2.05-3.35-2.8-.45-1.95 7.2-8.05 16.1-12.35 17.95-1.85.8-2.15 1.1-2.15 2.45 0 .85.3 2.05.7 2.65.85 1.3 2.95 8.75 3.75 13.35.85 4.55 2.55 10.55 3.35 11.75.4.55.7 1.45.7 2.05 0 1.4 2.35 3.7 3.75 3.7.6 0 1.5-.45 2-1 1.25-1.35 2.2-1.25 2.8.35.3.75.8 1.55 1.1 1.75.85.55 2.75.5 3.9-.1zm-43.55-22.85c.95-2.1 1.25-8.25.5-10.95-.55-1.95-.55-2.35.05-2.75 1.1-.65 1.55-.3 2.95 2.15 3.15 5.75 3.6 6.45 4.3 6.75 1.35.5 1.8-.55 1.2-2.85-.65-2.35-2.4-17.5-3-25.5-.2-2.9-.6-7.15-.9-9.5-.35-2.35-.8-5.8-1.05-7.75-.85-6.35-2.6-11.9-5.7-18.4-1.7-3.55-3.4-6.7-3.75-7s-1.4-1.65-2.35-3.05c-2-3.05-4.6-5.55-6.1-6.05-1.6-.45-1.45.2.9 3.3 4.7 6.25 10.5 20.45 8.35 20.45-.65 0-1.25-1.45-2.6-6-.35-1.25-1.25-3.35-2-4.7-.7-1.35-1.3-2.8-1.3-3.25 0-.9-3.2-4.55-3.95-4.55s-.7.35.75 4.55c1.85 5.45 2.7 14.75 2.65 30.2 0 17.15.95 27.35 3 31.15.3.55.55 1.6.55 2.25s.9 3.15 2 5.5 2.15 4.95 2.3 5.8c.45 2.05 2.25 2.15 3.2.2zm184.2.25c.55-.8.8-2.3.8-4.95 0-2.95.15-3.9.75-4.15 1.2-.45 2.25.2 2.25 1.45 0 .6.55 1.95 1.25 2.95s1.25 1.95 1.25 2.1c0 .75 2.3 3.2 3.05 3.2 1.35 0 1.45-.5.7-3.75-.35-1.65-.9-5.6-1.15-8.75-.3-3.15-.9-9.35-1.35-13.75-.4-4.4-.75-9.5-.75-11.35 0-4.25-3.15-16.75-5.85-23.45-2.4-5.8-4.9-9.7-9-13.95-2.3-2.3-3.3-3.05-3.7-2.65s.2 1.9 2.05 5.45c1.45 2.75 2.95 5.6 3.35 6.35.8 1.5.55 3.05-.45 2.75-.35-.15-2.1-3.4-3.9-7.25-3.4-7.35-6.95-12.4-8-11.35-.4.4.05 1.6 1.5 4.2 3.35 5.8 4.05 8.5 5 18 .25 2.6.7 5.9 1 7.25.25 1.4.65 3.4.8 4.5s.55 3.15.95 4.5c.75 2.8 2.05 13.85 1.85 15.75-.2 2.1.95 14.45 1.75 18.5.4 2.05.95 4.75 1.2 5.95s.7 2.5 1 2.85c.85 1.05 2.8.85 3.65-.4zm-106.5-2.8c.9-1.7 3.1-12.4 3.8-18.35.25-2.45.75-5.75 1.05-7.25.8-4.3 1.55-15.4 1.3-19.25-.3-4.55.35-10.95 1.7-16.55.6-2.45 1.05-4.85 1.05-5.4-.05-.5.7-2.45 1.65-4.3 1.75-3.45 1.75-4 .2-4-1.85 0-9.45 11.65-9.45 14.55 0 1.1-1.3 2.2-1.75 1.45-.6-1 1.25-5.85 3.65-9.55 1.35-2.05 3.95-5.25 5.85-7.15 2.3-2.3 3.2-3.55 2.85-3.9-.25-.25-1-.35-1.65-.15-2.85.9-11.4 10.75-14.2 16.3-3 5.9-4.55 13.95-5.25 27.45-.45 8.75-1.1 14.95-2.05 19.4-.25 1.3-.7 4.05-.95 6.1s-.7 4.75-.95 6c-.9 4.1-.85 4.25.25 4.4 1.25.2 4.1-2.85 5.5-5.85 1.25-2.65 2.8-4.55 3.65-4.55.7 0 .8.85.85 5.55.05 4.15.2 5.65.75 6 1.1.7 1.35.55 2.15-.95zm177.1-2.45c1.2-1.35 2.65-3.35 3.2-4.55.7-1.5 1.3-2.1 1.9-2 .7.15.8.7.7 3.75-.15 3.05-.05 3.65.75 4.05 1.4.7 2.1.2 2.7-2.05 1.5-5.35 1.75-10.2 1.3-25.25-.3-9.35-.25-14.6.1-16.1.3-1.25 1-5.5 1.55-9.45 1.2-8.4 2.4-13.6 4.4-18.9.1-.4-.25-.65-1-.65-2.05 0-3.8 3.05-6.65 11.65-1.4 4.05-2.2 5.1-3 3.85-.45-.75 2.1-8.25 4.05-11.9 2-3.65 1.95-3.6.8-3.6-2.3 0-8.75 9.55-11.35 16.75-.9 2.45-1.75 10.2-2.05 18.5-.3 7.3-.2 10.15.55 15.25 1 6.9.8 14.7-.5 18.25-.85 2.4-.95 4.75-.2 4.75.3 0 1.55-1.05 2.75-2.35zm-229.15-13.25c2.8-2.95 5.5-7.3 7.35-11.8.85-2.1 1.8-4.4 2.1-5.1.35-.7.85-2.05 1.15-3 1.05-3.45 2.75-2.1 3.5 2.8.4 2.55 2.85 6.75 7.6 13.1 2 2.65 3.65 5 3.65 5.2 0 .75 2.55.4 2.85-.4.4-1 .4-.9-.3-16.2-.65-14.45-1.75-24.8-3-27.75-.5-1.1-1.05-2.65-1.25-3.5-.4-1.5-4.6-10.7-7.25-15.75-.95-1.8-1.75-2.75-2.4-2.75-.75 0-.9.4-.85 2.5.1 3.3 2.7 12.05 5.2 17.5 2 4.35 2.55 7.25 1.4 7.25-.8-.05-5.4-11.65-6-15.15-.8-4.7-.8-4.75-2.3-4.95-1.05-.1-1.35-.4-1.3-1.25 0-.65.05-2.5.1-4.15.1-2.8.15-3 1.3-3 1.85 0 1.95-.65.5-3.5-1.7-3.45-2.85-3.25-3.25.5-.2 1.5-.8 4.2-1.35 6s-1.6 5.05-2.25 7.25c-.7 2.2-1.95 5.9-2.85 8.25-1.55 4.2-4.6 13.6-5.45 17-1.55 5.9-2.6 19.7-2.05 26.35.6 7.2 1.7 8.15 5.15 4.55z"/><path d="m259.5 717.5c0-.25.35-.5.75-.5s.75.25.75.5c0 .3-.35.5-.75.5s-.75-.2-.75-.5zm-213.5-10.25c0-.4.25-.75.5-.75.3 0 .5.35.5.75s-.2.75-.5.75c-.25 0-.5-.35-.5-.75zm222-.05c-.45-.5-.5-.9-.1-1.3.6-.6 1.6-.1 1.6.85 0 1.05-.8 1.3-1.5.45zm-235.45-17.65c-.9-.6-.25-1.55 1-1.55.7 0 .95.3.85.85-.2 1-.9 1.3-1.85.7zm-.7-5.4c-.6-.55-.4-1.15.4-1.15.4 0 .75.35.75.75 0 .8-.6 1-1.15.4zm212-11.45c-.8-.8-.3-1.75.8-1.6.6.1 1.1.5 1.1.9 0 .8-1.3 1.25-1.9.7zm7.5-2.85c-.4-1.1.85-2.55 1.85-2.2 1.25.5.85 2.55-.5 2.75-.6.1-1.2-.15-1.35-.55zm7.75-4.45c-.95-.95-.75-2.4.4-2.4 1.3 0 1.85 1.35.9 2.3-.55.55-.8.6-1.3.1zm4.6-5.65c-.45-1.1 1.1-2.65 1.85-1.9s.35 2.35-.7 2.55c-.45.1-1-.2-1.15-.65zm11.4-27.85c.1-.65.5-1.15.9-1.15s.8.5.9 1.15c.15.85-.1 1.1-.9 1.1s-1.05-.25-.9-1.1zm1.4-6.1c0-1 .25-1.3 1.05-1.3.75 0 1 .25.85 1.1-.25 1.7-1.9 1.85-1.9.2zm1.5-5.6c-.55-.6-.5-.9.15-1.55 1.1-1.15 2.6 0 1.8 1.4-.6 1.15-1.1 1.2-1.95.15zm1.05-6.15c-.75-.45-.4-3.05.4-3.05.75 0 1.65 1.4 1.45 2.3-.2 1.05-.9 1.35-1.85.75zm0-8.45c-.6-1.15.1-2.35 1.15-1.95 1 .4 1.1 2.85.05 2.85-.4 0-.95-.4-1.2-.9zm-.35-7.85c-.2-.45-.1-1.05.2-1.35.75-.75 2.2-.05 2 .95-.2 1.15-1.8 1.45-2.2.4zm-2.95-9.75c-.45-.75.2-1.5 1.3-1.5.6 0 .95.35.95 1 0 1.05-1.65 1.45-2.25.5zm-4.05-6.75c-.4-1.05.15-2.25 1-2.25 1 0 1.45.8 1.05 2-.35 1.15-1.65 1.35-2.05.25zm-5.7-7.35c0-.35.2-.95.45-1.35.6-.95 2.15-.3 1.95.8-.2 1.05-2.4 1.55-2.4.55zm-6.2-6.25c-.2-.45 0-1.15.45-1.6.65-.7.85-.7 1.55.05.45.45.7 1.2.55 1.6-.4 1.05-2.15 1-2.55-.05zm-8.55-5.65c-.15-.3-.15-.95 0-1.55.5-1.45 1.95-1 2.15.7.15 1.05-.05 1.35-.85 1.35-.55 0-1.15-.25-1.3-.5zm-5.4-3.8c-.2-.2-.35-.9-.35-1.55 0-.9.25-1.2.9-1.05.5.1.85.6.85 1.35 0 1.2-.75 1.85-1.4 1.25zm-8.65-3.75c-.15-.3.05-.9.45-1.35.65-.6.95-.65 1.55-.15.4.35.6.95.45 1.35-.3.85-1.95.95-2.45.15zm-7.7-3c0-.7.25-.95.85-.85 1.3.25 1.45 1.9.2 1.9-.75 0-1.05-.3-1.05-1.05zm-161.85 114.2c-.35-.15-.65-.65-.65-1.2 0-.7.35-.95 1.25-.95s1.25.25 1.25.95c0 1-.85 1.55-1.85 1.2zm-10.8-11c-.2-.15-.35-.85-.35-1.5 0-1.3 1.05-1.55 1.95-.45 1.05 1.25-.5 3.1-1.6 1.95zm-9-23.45c-.55-.6.65-2.15 1.4-1.9 1.1.45.95 2.2-.15 2.2-.5 0-1.1-.15-1.25-.3zm-2-23.55c-.85-.8-.25-1.65 1.15-1.65.95 0 1.5.25 1.5.7 0 1-1.95 1.7-2.65.95zm.35-6.9c-.2-.45-.1-1.05.2-1.35.75-.75 2.2-.05 2 .95-.2 1.15-1.8 1.45-2.2.4zm1.15-5.55c-.55-.55.65-1.7 1.75-1.7.65 0 .9.3.8.9-.15.85-1.9 1.45-2.55.8zm3.25-6.8c.1-.6.5-1.15.9-1.15 1.1 0 .95 1.95-.15 2.15-.75.15-.9-.05-.75-1zm2.6-5.15c-.35-.9.15-1.75 1.1-1.75 1 0 1.5 1.5.65 2.05-1 .6-1.45.55-1.75-.3zm3.8-6.75c0-.75.35-1 1.25-1s1.25.25 1.25 1-.35 1-1.25 1-1.25-.25-1.25-1zm4.7-3.7c-.45-1.2 0-2.55.9-2.7.95-.2 1.75 1.9 1.15 2.85-.45.8-1.75.65-2.05-.15zm5.3-6.05c-.9-1.05.8-3.05 1.85-2.2.95.8.8 1.85-.3 2.4-.7.4-1.1.35-1.55-.2zm7.55-5.75c-.95-.55-.2-2.6.85-2.4.5.1.9.65 1 1.2.15 1.15-.85 1.85-1.85 1.2zm8.1-4.25c-.35-.95.65-1.8 1.85-1.6.4.05.75.55.75 1.1 0 1.3-2.1 1.7-2.6.5zm9.2-2.6c-.5-.5-.4-2.55.1-2.85.75-.5 2.05.25 2.05 1.15 0 1.4-1.4 2.5-2.15 1.7zm161.6-81c0-2.95-.05-6.65-.1-8.15-.1-2.15.05-2.75.65-2.75.65 0 .75 1.2.75 7.95-.05 5.85-.2 8.05-.65 8.2s-.6-1.2-.65-5.25zm2.8 4.35c-.2-.3-.15-.8.1-1.15.3-.35.8-1.9 1.15-3.5s.85-3 1.1-3.15c.65-.4.45 1.85-.35 4.05-.4 1.1-.75 2.4-.75 2.85 0 1.05-.8 1.6-1.25.9zm-7.05-1.6c-.25-.35-.9-1.95-1.5-3.5-.8-2.2-.9-2.9-.4-3.1.65-.25 1.8.8 1.6 1.5-.05.25.2 1.55.55 2.85.7 2.35.55 3.5-.25 2.25zm.45-21.4c-2.45-1-2.8-4-.85-7.3 1.2-2 1.45-2.2 3.25-2.2 1.7 0 2.1.25 2.95 1.65.55.9 1 2.5 1 3.7 0 1.7-.25 2.3-1.55 3.35-1.6 1.35-2.9 1.55-4.8.8zm3.5-3.85c.5-.5-.65-1.65-1.65-1.65s-2.15 1.15-1.65 1.65c.15.2.9.35 1.65.35s1.5-.15 1.65-.35zm-8.3-40c-.2-.15-.05-.8.3-1.35.85-1.25 3.35-8.9 3.35-10.1 0-.5.6-2.55 1.3-4.6s1.45-5.65 1.7-8 .65-4.45.95-4.75c1-1 1.55.3 1.55 3.55 0 2.75.55 4.95 3.05 12.5 3 9.05 3.35 10.85 2 10.85-.85 0-2.4-4.4-4.05-11.25-.6-2.6-1.2-5.05-1.3-5.4s-.7-.6-1.3-.5c-1 .15-1.2.55-1.45 2.75-.2 1.45-.5 3.05-.7 3.5-.2.5-.85 2.8-1.5 5.15-1.8 6.6-2.85 8.75-3.9 7.65zm-178.25 68.2c-.35-.8-.6-1.7-.6-2 0-.35-.45-1.6-1-2.8-.8-1.65-.9-2.35-.45-2.85.4-.5.75-.55 1.2-.2.7.6 1.95 6.85 1.65 8.25-.2.9-.3.85-.8-.4zm4.3-.15c-.5-.75-.35-12.45.15-13.25.55-.95 1.55.05 1.2 1.25-.2.55-.5 3.65-.7 6.8-.15 3.15-.45 5.5-.65 5.2zm3.4-2.15c-.3-.45.85-5.35 1.4-5.9.75-.8.9.55.3 3.1-.65 2.8-1.2 3.65-1.7 2.8zm-5.8-21.05c-1.05-1.05-1.2-1.65-1-4.25.2-3.05 2.05-4.55 4.6-3.65 1.45.5 2.9 3.05 2.9 5.05 0 1.55-2.55 3.85-4.3 3.85-.65 0-1.65-.45-2.2-1zm3.9-3.1c.2-1-1.75-1.75-2.55-.95-.35.35-.3.75.15 1.3.8.95 2.2.8 2.4-.35zm-11.4-38.15c.35-.4.8-.75 1.05-.75s.3.35.15.75c-.2.4-.65.75-1.05.75-.65 0-.65-.15-.15-.75zm2.8-5.1c1.15-2.7 4.1-11.15 4.45-12.75.3-1.65 1.25-1.9 1.25-.35 0 2.45-5 14.95-6 14.95-.3 0-.2-.7.3-1.85zm96.7 321.2c-.85-.45-1.25-1.1-1.35-2.25-.3-3.35-2.8-8.3-8.95-17.6-1.65-2.45-4.85-5.7-9-9.05-4.95-4-14.6-12.75-20.7-18.75-5.65-5.55-9.4-10.05-12.3-14.75-1-1.6-2-2.95-2.25-2.95-.2 0-.85-.95-1.4-2.1-.6-1.2-1.65-3.15-2.45-4.4-1.9-3.1-4-7.95-5.1-11.8-.5-1.75-1.3-3.95-1.75-4.85-.8-1.55-1.95-9.5-2.7-18.85-.9-10.2 2.65-22.15 9.75-33.1 4.1-6.35 11.1-12.5 15.05-13.2 1.05-.2 2.3-.75 2.8-1.25.5-.55 1.55-.95 2.4-.95.8 0 2.4-.45 3.55-1.05 1.75-.9 2.35-.95 4.1-.5 1.1.3 3.4.8 5.05 1.1 6.15 1.25 14.75 7.1 17.05 11.6.5.9 1.7 2.75 2.7 4.1 1 1.4 2.7 4.45 3.8 6.85 2.1 4.75 3.25 5.55 4.25 3.05 2.7-6.85 4.15-8.9 11-15.6 4.5-4.45 5.65-5.2 10.2-6.8 5.35-1.85 15.65-2.1 18.8-.5.75.4 1.8.75 2.25.75 1.4 0 7.4 4.3 10.25 7.45 5.65 6.05 8.95 10.55 9.65 13.05.2.7 1.1 3.75 2.05 6.75.9 3.05 1.9 6.75 2.2 8.25.75 4.1 1.05 16.55.5 21.2-.45 3.9-2.45 12.2-3.55 14.8-.3.7-1.2 3.3-2 5.75-.8 2.5-1.75 4.95-2.1 5.5s-.9 1.7-1.2 2.6c-.5 1.5-4.85 8.1-8.35 12.65-4.8 6.25-6.1 7.65-7.5 8.35-.8.4-2.15 1.65-3 2.75-1.3 1.75-5.85 6.1-11.6 11.15-.95.85-2.9 2.55-4.3 3.9-1.4 1.3-2.75 2.35-2.95 2.35s-1.35 1.05-2.5 2.35c-1.2 1.3-2.6 2.8-3.15 3.4-.6.55-1.9 2.2-2.95 3.65-1.05 1.4-2.2 2.6-2.55 2.6-.4 0-1.1.55-1.6 1.25s-1.55 2.1-2.35 3.15c-1.65 2.15-4.8 8.25-4.8 9.3 0 .35-.35.85-.8 1-.95.35-.7.4-2.2-.35zm2.9-9.2c.5-.8 1.1-2.05 1.3-2.8.2-.8 1.05-2.15 1.95-3.05s2.5-2.7 3.6-4.1c1.1-1.35 2.15-2.55 2.4-2.6.2-.1 1.8-1.6 3.5-3.3 1.7-1.75 5.45-5.25 8.35-7.8 2.85-2.55 5.8-5.55 6.55-6.7s4-4.85 7.2-8.2c3.85-4.05 5.7-6.35 5.35-6.7-.3-.3-4.75-.45-11.1-.45-7.65.05-10.85-.1-11.35-.55-.55-.45-.95-.45-1.65 0-.65.4-7.8.55-25.85.5-31.8-.05-30.15-.1-30.15.9 0 1.15 5.2 6.85 17.75 19.4 6.05 6.1 12 12.5 13.25 14.25s3 4.2 3.9 5.4c.85 1.2 1.6 2.75 1.6 3.55.05 3.7 1.6 4.75 3.4 2.25zm45.05-51.4c1.45-1.5 6.1-10.9 5.6-11.4-.35-.35-13.35-.5-39.9-.35-5.3 0-5.65.05-5.65 1 0 .55-.2 1.4-.45 1.9-.2.45-.8 1.75-1.25 2.85-1.65 3.7-2.05 4.4-2.55 4.2-.8-.3-.3-2.45 1.3-5.75.8-1.65 1.45-3.25 1.45-3.55 0-.75-10.2-1.35-11.45-.65-.6.3-1.05.7-1.05.95 0 .2.9 2.1 1.95 4.25 2.05 3.95 2.15 5.3.55 5.3-.75 0-1.2-.95-2.25-4.35-.7-2.45-1.4-4.7-1.5-5.05-.45-1.3-2.65-1.8-5.4-1.25-1.6.3-2.7.35-2.9.05-.15-.25-2.3-.4-4.75-.3l-4.45.15.1 1.35c.05.75.65 2.55 1.4 4 1.4 2.8 1.5 4.55.2 4.8-.7.15-2.3-3.55-4.2-9.75-.25-.8-7.3-.9-8.1-.1-.35.35 0 1.75 1.35 4.8 1.9 4.3 2.05 5.85.6 5.55-.9-.2-3.65-6.75-3.85-9.15-.1-1.45-.2-1.5-3.3-1.85-4.05-.4-8.45.15-8.45 1.1 0 .2.7 1.05 1.5 1.85.85.75 1.75 2.2 2.05 3.15s1.1 2.45 1.75 3.35c.65.85 1.2 1.9 1.2 2.25 0 .4.2.9.5 1.2.25.25 17.45.45 44.7.45 43.6 0 44.3 0 45.25-1zm9-16.95c.6-.75 2.55-6.1 2.55-7.05 0-.35-.5-.75-1.1-.95-.65-.15-21.75-.5-46.9-.8-25.15-.25-50.45-.6-56.25-.75-5.75-.2-10.75-.15-11.1.1-.8.6.1 4.2 1.85 7.15l1.3 2.25h37.3c20.55 0 37.5.15 37.65.35.2.2 7.95.35 17.25.35 13.4 0 17.05-.15 17.45-.65zm1.9-11.6 2.05-.25.8-3.6c1.6-7.5 1.6-7.1-.55-9.7-2.85-3.5-5.95-7.75-6.6-9-.4-.8-1.05-1.15-2.05-1.15-1.25 0-1.8.45-3.35 2.9-1.05 1.55-2.65 3.75-3.65 4.9-.95 1.1-2.7 3.3-3.9 4.85-1.25 1.65-2.55 2.85-3.1 2.85-.85 0-3.5-2.6-3.5-3.45 0-.25-.7-1.3-1.55-2.35-.85-1.1-2.1-3.05-2.8-4.45-1.6-3.2-3.05-4.75-4.4-4.75-.85 0-1.95 1.4-4.95 5.95-2.1 3.25-4.15 6.1-4.6 6.25-.4.15-1.1 1.1-1.5 2.05-.45 1.05-1.05 1.75-1.6 1.75-1.55 0-5.95-4.6-8.6-9-3.3-5.4-4.25-6.4-5.4-5.7-.95.6-4.5 5.55-8.25 11.45-3 4.75-3.8 4.85-6.25.5-.9-1.65-2.2-3.55-2.85-4.25-.6-.7-1.95-2.85-2.9-4.8-1.85-3.7-3.1-4.65-4.9-3.65-.5.25-3.05 3.5-5.75 7.2-2.65 3.7-5.2 6.85-5.6 7-.95.35-2.85-.9-3.7-2.4-.6-1.15-2-3.3-6.55-10.4-2.6-4.05-3.35-3.9-5.65.8-1 2.1-2.05 3.9-2.25 4.05-.25.15-.65 1.15-.95 2.25-.4 1.45-1 2.3-2.3 3.05-.95.55-1.7 1.25-1.7 1.55 0 .55.5 2.3 2.2 7.35l.6 1.75 26.45.15c14.6.1 29.55.35 33.25.55 6.9.4 52.55.2 56.35-.25zm-67.1-15.05c1-1.6 2.8-4.6 4-6.7 1.25-2.05 2.8-4.3 3.45-4.9 1.35-1.3 2.8-1.1 2.8.3.05.5.7 1.8 1.5 2.9.85 1.1 1.9 2.65 2.4 3.45 1.6 2.65 4.6 6.25 5.85 7.1 1.9 1.25 3.65.25 6-3.45 1.05-1.7 3.05-4.85 4.4-6.95 2.35-3.8 2.5-3.9 4.4-3.9 1.05 0 1.95.2 1.95.4 0 .5 3.9 6.55 5.05 7.85.5.55 1.85 2.2 3 3.65 1.1 1.4 2.25 2.6 2.55 2.6.8 0 2.95-2.5 6.45-7.55 5.8-8.35 7.65-9.85 9.05-7.3 1.35 2.45 7.6 10.35 8.2 10.35.95 0 1.15-1.1.7-3.8-.25-1.35-.7-4.05-1.05-6.05-.3-1.95-.75-3.85-.95-4.15-.25-.45-4-.65-13.05-.75-7-.1-18.45-.35-25.45-.55-19.85-.6-81.55-.35-82.2.3-.75.75-1.75 7.95-1.75 12.25.05 4.1.5 6 1.4 6 .6 0 4.45-6.55 7.1-12.1.85-1.8 1.25-2.15 2.45-2.15s1.9.55 3.75 2.9c1.3 1.55 2.65 3.5 3.05 4.25 1.5 2.8 5.3 7.35 6.1 7.35 1.3-.05 2.25-1 4.15-4.15 3.05-5.25 3.7-6.15 5.65-8.5 3.05-3.75 3.45-3.55 8.45 4.05.6.9 1.85 2.7 2.7 4 .9 1.3 2.1 3.2 2.65 4.25 1.55 2.85 3.05 2.6 5.25-1zm67.15-18.95c1.35-.4 1.4-1.15.1-3.55-.55-1.05-1-2.2-1-2.55 0-.75-9.45-10.2-11.5-11.5-.7-.45-2.05-1.4-3-2.15-2.85-2.2-7.85-3.45-13.7-3.5-6.1 0-9.35.85-12.65 3.45-3.7 2.85-6.4 4.6-7.1 4.6-.4 0-1 .4-1.4.9-1 1.2-5.15 9.65-5.15 10.4 0 .35-.2.75-.45.9-.65.4-5.05-2.15-5.05-2.95 0-.35-1.05-2.55-2.4-4.85-1.3-2.3-2.65-4.75-3.05-5.5-1.05-2.05-4.35-4.45-7.2-5.2-2.8-.75-10.65-1.85-13.1-1.8-.8 0-3.75.2-6.5.5-4.15.4-5.5.75-7.75 2.05-1.5.85-3.85 2.05-5.25 2.7-3.3 1.55-7.15 5.85-9.45 10.45-1.85 3.75-2.2 5.6-1.25 6.15.3.2 20.45.45 44.85.6 42.65.2 56.05.45 56.55.95.35.3 14.15.25 15.45-.1z"/><path d="m160.85 714.65c-.2-.15-.35-1.25-.35-2.4s-.45-3.4-1-5.05c-.55-1.6-1-3.35-1-3.8 0-1.7-3.7-7.25-7.15-10.75-3-3.05-3.45-3.75-3.15-4.85.25-1.05.6-1.3 1.8-1.3s2 .65 4.5 3.6c1.65 2 3.95 5.45 5.15 7.75 2.5 4.95 3.3 5.2 5.05 1.75 1.45-2.85 3.65-5.65 8-10.15 3.75-3.9 3.95-4.05 5-3.65 1.2.45 1.1 3.55-.15 3.95-1.75.55-10.05 9.25-10.05 10.55 0 .35-.9 2.75-2 5.4s-2 5.55-2 6.45c0 2.2-1.55 3.65-2.65 2.5z"/><path d="m160.9 691.95c-.65-.35-.9-1.15-.9-2.95 0-2.6.05-2.7 2.1-3.2 1.85-.45 3.4 1.1 3.4 3.4 0 2.8-2.25 4.15-4.6 2.75zm3-2.8c.1-.4-.25-.65-.85-.65-1.05 0-1.75.65-1.2 1.2.5.5 1.8.15 2.05-.55zm27.6-20.5c0-1.45 3.1-8.65 3.75-8.65 1.15 0 1.15.65-.2 3.65-.8 1.7-1.65 3.7-1.95 4.5-.65 1.5-1.6 1.8-1.6.5zm-18.25-.15c-.45-.75 2.7-8.4 3.6-8.7 1.1-.45 1.3 1 .35 2.45-.45.75-1.25 2.5-1.7 3.9-.85 2.55-1.6 3.4-2.25 2.35zm8.75 0c0-.3.9-2.3 2-4.5 2.1-4.15 3.35-5.25 2.75-2.35-.55 2.5-3.2 7.35-4 7.35-.4 0-.75-.25-.75-.5zm20.15-.3c2.3-7.2 4.25-10.1 3.75-5.55-.35 2.9-1.9 6.05-3.1 6.3-.7.1-.85-.05-.65-.75zm-55.35-1.8c-.15-.35-.55-1.75-1-3.1-.9-2.85-1-4.3-.3-4.3 1.1 0 3.9 6.45 3.25 7.5-.45.7-1.75.6-1.95-.1zm12.7-34.65c-.5-.6-.45-1 .2-2 1.5-2.25 3.25-1.2 2.6 1.5-.35 1.4-1.8 1.7-2.8.5zm25.8-.65c-.5-1.5.2-2.65 1.4-2.5 1.55.2 1.5 3.1-.05 3.3-.7.1-1.15-.15-1.35-.8zm-75.5-.4c-.55-1.5-.3-2.65.7-2.95 1.25-.4 2 .05 2 1.25 0 1.55-.55 2.5-1.5 2.5-.5 0-1.05-.35-1.2-.8zm24.45 0c-.7-.75-.7-.95.15-2.4 1.1-1.9 2.15-2 2.8-.2.4 1.1.3 1.6-.45 2.4-1.1 1.2-1.45 1.25-2.5.2zm76.45-.4c-.15-.4-.2-1.25-.1-1.9.1-.85.45-1.15 1.4-1.15 1.1 0 1.25.2 1.25 1.75 0 1.45-.2 1.8-1.15 1.9-.65.1-1.2-.15-1.4-.6zm-63.35-11.15c-.55-.55-.4-2.4.25-3.05 1.05-1.05 2.4-.7 2.4.6 0 .65-.15 1.55-.3 2-.3.8-1.75 1.1-2.35.45zm25.3 0c-.9-.35-.8-3.1.1-3.45.4-.2 1.05-.05 1.45.25 1.2 1-.1 3.7-1.55 3.2zm26.5 0c-.9-.35-.8-2.4.1-3.15 1.25-1.05 2.35-.2 2.15 1.6-.15 1.6-.9 2.15-2.25 1.55zm-77.45-1.85c-.6-1.55.05-2.55 1.7-2.7 1.4-.15 1.6 0 1.6 1 0 .65-.25 1.45-.6 1.8-.8.8-2.35.75-2.7-.1zm65.95-15.3c-1.4-.85-1.65-1.25-1.65-2.95 0-2.25 1.95-5.05 3.55-5.05 1.55 0 3.05 2.9 2.7 5.25-.3 2-1.45 3.75-2.45 3.75-.3 0-1.3-.45-2.15-1zm-56.1-1.35c-1.7-2.1-1.9-3.5-.8-5.65.8-1.5 2.65-2.35 4-1.8.9.3 2.25 3.25 2.25 4.75 0 1.65-1.05 3.4-2.35 4-1.6.7-1.35.8-3.1-1.3z"/><path d="m201.35 598.65c-.2-.15-.35-.7-.35-1.15 0-1.4-1.85-3.35-4.4-4.6-1.85-.9-3.15-1.15-6.35-1.15-3.85 0-4.15.1-7.75 2.2-2.05 1.25-4.1 2.7-4.55 3.2-.55.7-1.1.9-1.7.65-.85-.3-.85-.45.4-1.6.75-.7 1.35-1.4 1.35-1.65 0-.2 1.3-1.05 2.9-1.8 1.55-.8 3.2-1.75 3.7-2.1.5-.45 2.55-.8 5.5-.95 4.4-.25 4.8-.2 7.2 1.15 4.7 2.6 5.7 3.8 5.7 6.6 0 1.45-.85 2.05-1.65 1.2zm-80.35-3.15c0-.9 3.55-4.4 5.75-5.7 2-1.2 2.65-1.3 7.9-1.3 4.3 0 5.85.2 6.3.7.35.4 1.3.85 2.2 1 1.85.4 3.5 2.35 3.25 3.9-.2 1.55-1.15 1.65-1.8.15-.35-.8-1.6-1.7-3.4-2.5-2.35-1.05-3.6-1.25-7.3-1.25-4.95 0-7.15.85-10.15 4-1.4 1.5-2.75 1.95-2.75 1zm76.35 123.65c-.65-.6-.35-2 .65-2.9 1.4-1.25 1.25-2.05-.55-2.75-1.2-.5-1.75-.5-2.7 0-1.75.95-2.15.25-.8-1.2l1.15-1.25-1.05-1.7c-1.95-3.2-.65-4.8 1.45-1.85.6.85 1.35 1.5 1.65 1.5.35 0 1.6-.85 2.85-1.95l2.2-1.9-.7-2.1c-.8-2.45-.5-2.95 1.1-1.85.6.45 1.55.8 2.05.8.65 0 .85.25.65.75-.15.4-.4 1.05-.55 1.4s.2 1.1.75 1.6c1 .9 1.05.9 2.5-.15 1.45-1.1 2.5-1.4 2.5-.8 0 .2-.45 1.1-1.05 2l-1.05 1.7 1.35.5c.7.25 1.65.5 2.05.5s.7.45.7 1c0 1.3-2 1.35-4.05.15-1.45-.85-1.45-.85-3.3.95-1.7 1.7-1.8 1.95-1.2 3.1 1.1 2 .4 2.85-1.9 2.5-1.75-.3-2.05-.15-2.8 1-.9 1.35-1.35 1.55-1.9.95zm6.55-8.9c1.8-1.7 1.8-1.8.9-2.5-1.5-1.15-2.55-.9-4.5.95-1.9 1.75-2.2 2.55-1.15 2.95 1.55.65 3 .25 4.75-1.4zm-88.75 5.95c-.2-.5.05-1.1.5-1.45 1.25-.9 1.05-1.5-.85-2.5-1.65-.9-1.8-.9-2.7-.1-1.3 1.2-3.75 1.35-4 .3-.1-.5.4-1.05 1.4-1.45 1.75-.75 1.85-1 .5-2.15-1-.85-1.4-2.85-.55-2.85.25 0 1.15.6 2.05 1.3 1.5 1.25 1.55 1.3 2.5.45 1.2-1.1 1.25-1.9.25-2.75-1.4-1.15-.9-2 1.2-2 1.1 0 2.15-.2 2.3-.5.15-.25.65-.5 1.05-.5.85 0 .9 1.65.1 3-.55.85-.5 1.1.1 1.5 1.25.8 2.95.55 3.6-.5.9-1.4 2.1-1.3 1.65.15-1 3.2-.95 3.3.95 4.1 1 .4 1.8 1.1 1.8 1.5 0 .85-1.6 1-3.05.25-.75-.4-1.35-.35-2.45.35-1.7 1-1.95 1.95-.55 2.4.95.3 1.8 1.65 1.35 2.15-.15.1-.95-.05-1.8-.3-1-.4-1.95-.4-2.8-.1-1.75.7-2.2.65-2.55-.3zm4.15-4.95c.15-.4.75-.85 1.3-1.05 1.25-.4.75-.85-2-1.7-2-.65-2.2-.6-3.2.35l-1.05 1.1 1.7 1c2 1.25 2.9 1.3 3.25.3zm40.55-182.6c-.15-.25-.05-2.55.25-5.15.55-5.15.2-29.4-.55-39.25-.25-3.3-.95-7.8-1.55-10s-1.25-4.65-1.45-5.5c-1.1-4-5.1-10.85-8.15-13.85-1.35-1.3-2.4-2.75-2.4-3.3s1-2.2 2.2-3.65c5.4-6.6 8.65-14.9 9.15-23.45.2-3.35.1-6.55-.25-8.15-.3-1.4-.85-5.65-1.25-9.35-.65-6.05-1.25-8.85-4.55-20.4-.35-1.2-.9-2.35-1.25-2.55-.35-.25-1.3-1.7-2.1-3.3-2.25-4.45-8.15-12.4-10.3-13.85-1.05-.7-3.15-2.45-4.65-3.85s-3-2.55-3.3-2.55-1.15-.45-1.85-1-1.8-1-2.5-1c-.65 0-1.5-.35-1.85-.75s-1.4-.85-2.45-1.05c-1-.15-3.7-1-6.05-1.8-9.25-3.2-12.35-3.6-28-3.65-10.7 0-14.8.2-16.5.7-1.35.4-5.55.75-10.25.9-4.4.1-8.8.35-9.75.45-2.05.3-6.4-1-11.75-3.55-1.9-.95-4.2-1.8-5.1-2-1.1-.2-2.95-1.6-5.6-4.2-4.95-4.75-6.8-8.35-7.45-14.35-.55-4.8-.75-5.2-2.45-5.2-2.5 0-5.85-2.4-8.1-5.75-2.99998-4.55-3.24998-5.6-2.89998-11.6.25-4.6.5-5.6 2.05-8.85 2.29998-4.7 7.94998-10.25 13.09998-12.7 1.9-.9 4.1-2 4.85-2.4 1.85-.9 4.15-.9 4.5 0 .15.4-.15 1.3-.7 2-2.9 3.7-3.9 11.35-2.5 19.05 1.05 5.8 4 14.3 5.7 16.65 2.25 3.05 6.15 6.7 7.9 7.45.8.35 1.85.95 2.25 1.4.45.4 1.35.75 2.1.75s1.8.35 2.3.75c.55.4 1.5.75 2.15.75s1.85.35 2.6.75c2.2 1.1 10.25 2.35 20.55 3.2 2.6.2 5.3.6 6 .9s2.4.7 3.85.9c1.4.2 4.2 1 6.1 1.75 1.95.8 4.4 1.6 5.4 1.8 1.05.2 2.8.75 3.9 1.25s2.5.95 3.1.95 1.4.3 1.75.65c.75.7 5.8 3.35 6.4 3.35.25 0 2.3.9 4.6 2s4.5 2 4.95 2 1.1.35 1.45.75 1 .75 1.5.75c.45 0 1.5.5 2.3 1.15 2.35 1.8 4.2 3.15 8.95 6.35 2.75 1.85 5.35 4.1 6.75 5.85 2.35 2.9 3.75 4.1 4.25 3.55 1.1-1.05-7.05-15.4-11.8-20.8-4.1-4.65-13.35-13.05-15.3-13.9-.85-.35-1.7-.9-1.85-1.15s-.85-.6-1.55-.75c-.75-.2-2.4-1.1-3.7-2-1.3-.95-3.05-1.85-3.95-2-.85-.2-1.8-.7-2.15-1.1-.3-.4-.9-.7-1.25-.7-.4 0-1.7-.9-2.9-2s-2.4-2-2.65-2c-.3 0-1.65-.9-3.05-2-1.35-1.1-2.7-2-3-2-.25 0-1.95-1.4-3.75-3.1-1.8-1.75-4.3-4.1-5.5-5.2-1.25-1.15-2.9-3.05-3.65-4.25s-2.1-3.3-3-4.7c-.9-1.35-1.8-3.1-1.95-3.85-.8-3.25-3.6-7.35-7.35-10.8-3.3-3.05-4.15-3.6-5.7-3.6-2.6 0-5.9-2.2-9.05-5.95-3.55-4.3-5.1-7.6-5.7-12.1-.65-4.4-.25-7.45 1.15-9.2 1.6-2.05 2.15-.95 1.4 2.9l-.65 3.2 1.8 3.2c2.15 3.9 9.15 11.25 11.1 11.75.8.2 2.9 1.2 4.7 2.25 3.6 2.05 6.8 3 8.3 2.45.55-.2 2.1-.55 3.5-.75 1.9-.25 3.2-.9 5.6-2.8 3.05-2.45 6.15-5.9 6.15-6.8 0-.25.7-1.25 1.5-2.15s1.5-1.9 1.5-2.1c0-.25.8-1.5 1.75-2.75 1.3-1.7 1.75-2.8 1.75-4.2 0-4.75-2.4-6.05-4.45-2.45-.6 1.1-1.3 2-1.5 2s-.95.75-1.6 1.7c-.7.95-2.95 3.1-5 4.7-3.9 3.1-5.95 5.25-5.95 6.35 0 1.85-4.7 3.15-5.3 1.5-.35-.8-4.4-3.75-5.2-3.75-.3 0-1.35-.75-2.35-1.7-1.05-.9-2.45-1.95-3.15-2.3s-1.55-1.1-1.95-1.6c-.35-.55-2.05-2.6-3.75-4.6-1.65-2-4.05-5.55-5.3-7.95-2-3.85-2.45-4.4-4-4.85-.95-.25-2.35-.5-3.1-.5s-2.4-.85-4-2.05c-5.95-4.65-7.2-7.4-6.7-15.15.45-6.2 1.3-9.4 3.9-14.45 2.1-4 5.15-7.25 8.3-8.75.85-.45 1.6-.95 1.6-1.2 0-.2 1.15-.5 2.5-.7 2.2-.3 2.55-.5 2.85-1.65.15-.7.7-2.15 1.25-3.2 1.3-2.55 2.65-7.15 3.95-13.15 1.2-5.45 1.5-14.5.8-23.3-.45-5.7.1-6.35 2.5-2.85 3.65 5.25 5.5 7.5 10.15 12.3 2.75 2.85 5.4 5.15 5.9 5.15.45 0 1.3-.5 1.8-1.05.7-.85 1.3-1 3-.85 2.95.35 8.5 4.35 10.45 7.5 1.45 2.3 1.85 12 .65 14.45-.45.85-.8 1.8-.8 2s1.1.75 2.45 1.2c5.8 1.9 12.95 12.35 14.55 21.35.45 2.4.45 3.6.05 4.3-.3.6-.55 1.9-.55 2.95 0 2.25-1.2 7.15-2.35 9.65-1.65 3.55-5.9 8.5-7.35 8.5-1.6 0-2.15.55-3 3-.7 2.05-.7 2.3.05 2.9.45.3 1 .6 1.2.6.4 0 1.75 3.65 2.45 6.35.5 2.15-.6 7.85-2.2 11.3-1.25 2.6-7.05 8.85-8.3 8.85-.3 0-1.5.9-2.6 2-1.15 1.1-2.4 2-2.75 2-.9 0-3.95 2.8-5.2 4.8-1.4 2.3-1.05 5.05 1.05 9.05 2.1 3.9 9.45 12.7 12.25 14.6 1.25.85 3.25 2.25 4.5 3.1s2.25 1.75 2.25 2 .4.45.95.45c.5 0 1.65.7 2.5 1.55 1.55 1.5 5.9 3.75 6.35 3.35.2-.25-3.15-8.35-3.85-9.2-.25-.3-.9-2.3-1.45-4.45-.85-3.3-1-5.55-1-14.3 0-9.9.05-10.55 1.2-13.05 1.4-3.2 5-6.9 8.05-8.35 2.65-1.25 3.3-1.3 6.6-.3 3.6 1.05 4.9 3.2 4.9 8 0 2.95-.25 4.05-1.65 6.9-2.05 4.1-3.3 4.55-2.8.9.3-2.15.2-2.5-.7-3-.55-.3-2.15-.55-3.55-.55-2.1 0-2.8.25-4.3 1.55-2.6 2.3-3.7 4.05-4.5 7.2-2.15 8.2.7 21.5 5.9 27.65 1.05 1.2 1.85 2.4 1.85 2.6 0 .25.8.85 1.75 1.3s2.95 2 4.4 3.45c1.45 1.4 4.45 3.95 6.65 5.6 4.25 3.3 10.65 9.6 11.7 11.65.35.7 1.3 2.05 2.05 3 1.4 1.75 5.9 10.55 7.15 13.95.4 1 1.75 4.5 3.05 7.8 3.25 8.35 4 10.4 5.2 15 .6 2.2 1.65 5.15 2.3 6.5 2.9 6.05 3.2 8.3 3.45 23.5.15 10.8.15 11 1.2 11.15s1.1 0 1.1-4.1c0-5.25 1.35-20.55 2-22.5.3-.8.5-1.95.5-2.55 0-1.45 2.1-7.9 3.6-11.05.8-1.6 1.55-2.5 2.4-2.75l1.25-.35-1.1-.35c-.65-.2-1.15-.55-1.15-.75 0-.55 3.05-8.15 3.5-8.75.2-.25 2.55-4.6 5.2-9.65s5.5-10.15 6.3-11.35c.85-1.2 1.5-2.4 1.5-2.6 0-1.75 12.4-15.85 18.8-21.4 2.85-2.45 5.85-5.6 6.7-6.9 2.8-4.5 5.45-10.2 6.2-13.55 2-8.5.05-16.95-5.05-22.25-2.5-2.6-2.65-2.7-4.7-2.4-2.8.35-3.55 1.3-3.85 4.6-.1 1.5-.4 2.9-.65 3.05-.8.45-3.45-1.35-4.7-3.2-1.5-2.3-2.1-6.35-1.3-8.75 1.85-5.55 9.45-7.8 15.75-4.6 3.45 1.75 4.85 3.35 7.55 8.6 1.65 3.2 2 4.45 2.15 7.4.2 3.45-1.45 15.4-2.35 17.15-.25.45-.8 2.1-1.3 3.6s-1.55 3.8-2.3 5.05c-2.85 4.5-1.6 4.55 4.5.2 2.45-1.8 4.65-3.25 4.85-3.25s1.3-.9 2.5-2 2.35-2 2.6-2c.7 0 5.65-5.05 8.15-8.3 1.3-1.7 2.65-4 2.95-5.05.35-1.05.95-2.35 1.25-2.9.35-.55.75-2.5.9-4.3l.3-3.3-2.35-1.05c-1.3-.55-3.1-1.3-4.05-1.65-2.5-.95-7.85-6.15-9.35-9.15-1.1-2.15-1.35-3.35-1.5-7.4l-.15-4.85 2-1.75c2.2-2 2.3-2.55 1-4.25-1-1.35-1.45-1.3-5.85.5-1.35.5-2 .5-4.25-.2s-3.1-1.35-5.05-3.8c-2.35-2.85-2.4-3.05-3.9-10.45-1.4-7.1-1.45-7.65-.75-10.65 1.85-8.55 6.3-17.4 9.35-18.8 1.05-.45 4-1.2 7.45-1.9 1.1-.2 1.4-.6 1.6-2.1.15-1.05.45-2.6.6-3.45.3-1.45.25-1.65-1.15-1.95-1.1-.2-1.7-.75-2.15-1.9-.35-.9-1.2-2.25-1.9-3-1.05-1.15-1.25-1.85-1.25-4.1.05-3.55 3.25-10.15 6.3-13.05 2.75-2.7 4.8-3.05 9.8-1.9l3.75.9.95-1.25c.55-.65 2.4-3.1 4.2-5.45 1.75-2.35 4.9-6.15 6.95-8.5 2.1-2.35 4.45-5.3 5.3-6.6 2.4-3.7 3.8-3.1 2.15.9-.65 1.5-.75 2.75-.5 5.45.2 1.9.45 5.35.65 7.6.15 2.4.55 4.35.9 4.65s2.05.8 3.75 1.1c1.95.3 3.45.9 3.95 1.5.45.5 1.55 1.4 2.45 2 .95.55 1.9 1.5 2.15 2.1.25.55.9 1.6 1.4 2.3.75.95 1.1 2.6 1.5 7.15.6 6.95.25 8.3-3.05 11.7-2.3 2.35-2.3 3.65.05 3.65 2.15 0 5.85 2.7 7.15 5.15.55 1.15 1.9 3 2.95 4.05 1.05 1.15 2.1 2.85 2.45 4.15.75 2.6.3 10.2-.8 14.2-.45 1.5-.95 3.45-1.2 4.35-.55 2.15-4.15 6.8-6.95 8.95-2.1 1.6-2.45 1.7-4.7 1.4-1.85-.25-2.6-.2-2.9.3-.85 1.35-.45 2.7 1 3.55 2.75 1.55 3.3 3.05 3.15 8.4-.2 8.55-2.45 13.15-8.1 16.85-1.8 1.15-3.6 2.45-4.05 2.9-.45.4-1.15.75-1.6.75-.4 0-1.65.8-2.7 1.8s-2.5 2.1-3.25 2.5c-.8.4-1.4.9-1.4 1.15s-1 1.55-2.2 2.85c-1.15 1.35-2.55 3.25-3.05 4.2-.75 1.5-2.7 3.85-8.1 9.9-.65.7-1.15 1.4-1.15 1.6 0 .55-6.9 6.2-8.15 6.65-.6.25-1.25.75-1.5 1.1-.2.4-3.25 2.65-6.75 5.05-3.5 2.35-7.85 5.35-9.65 6.6-1.8 1.3-4.65 3.3-6.35 4.45-1.65 1.2-3.15 2.6-3.35 3.15s-1.05 1.4-1.9 1.85c-1.7.85-9.75 8.85-11.55 11.45-3.3 4.8-6.05 9.15-6.65 10.65-.4.9-1.7 3.3-2.95 5.35-2.45 4.05-2.65 4.7-1.25 4.7.5 0 1.85-1.2 3.1-2.85 1.2-1.6 3.5-4.2 5.1-5.85 1.55-1.65 2.85-3.15 2.85-3.3 0-1.3 17.2-13.1 22.25-15.25 1.1-.5 2.9-1.25 4-1.75 1.1-.45 2.75-1.05 3.7-1.25.9-.2 2.6-.8 3.75-1.3 1.1-.5 2.7-.95 3.45-.95s2.1-.35 2.95-.8c1.85-.95 5.45-2 10.15-3 1.95-.4 4.35-1.05 5.4-1.45 1-.4 2.45-.75 3.1-.75.7 0 3.35-.45 5.9-1.05 10.4-2.35 12.3-2.9 15.45-4.5 1-.5 2.3-.95 2.9-.95.55 0 1.65-.4 2.4-.95.75-.5 2.6-1.7 4.1-2.7 3.3-2.1 8.1-7.05 10.65-10.85 2.25-3.4 3.75-7.8 4.15-12.3.25-3.25.15-3.8-2-9.4-1.25-3.25-2.6-6.45-3-7.05-.45-.7-1.8-1.4-3.7-1.95-3.15-.85-4.8-2.05-3.55-2.55 1.75-.65 6.05-1.35 9.55-1.6 5.05-.35 7.5.55 14.4 5.1.45.25 1.5.95 2.35 1.45.85.55 1.95 1.65 2.45 2.45.55.75 1.55 1.75 2.35 2.15.75.4 1.35.95 1.35 1.2 0 .3.8 1.4 1.75 2.45 1 1.1 2 2.7 2.25 3.65 1.2 4.05.1 10.6-2.4 14.65-1.75 2.85-3 4.1-5.9 6.05-2.05 1.4-3.05 1.7-5.1 1.7-1.4 0-2.65.2-2.8.45s.05 1.55.45 2.85c1.45 4.8.65 9.8-2.2 13.7-2.7 3.65-9.4 9.5-10.9 9.5-.3 0-.8.3-1.1.7-.4.5-2.5.75-7.45.95-6.45.25-10.25 0-17.35-1.15-1.95-.3-6.7-.3-13.5.05-5.75.3-11.05.5-11.75.5s-3.05.2-5.25.5c-2.2.25-5.95.7-8.35.95s-5.1.8-6 1.15c-.9.4-3.55 1.35-5.9 2.1s-4.8 1.8-5.45 2.3c-.65.55-1.6.95-2.05.95-.5 0-1.15.35-1.5.75-.3.4-1.1.85-1.65 1.05-.6.2-1.65.75-2.35 1.3-9.5 7.2-12.65 9.95-16.1 14.05-2.1 2.55-4.5 5.35-5.3 6.2-1.45 1.6-9.3 16.8-10.85 21.15-1.35 3.75-3.25 11.65-3.25 13.6 0 1.05-.3 2.75-.7 3.75-.4 1.05-.85 4.3-1 7.25-.25 4.4-.15 6.1.65 9.3 1 4.1 5.95 14.35 9.2 19.05 1.85 2.7 2.3 4.2 1.35 4.8-.85.55-6.3 11.75-7.35 15.25-1 3.1-1.9 6.55-3.4 12.5-1.25 4.85-3.2 28.65-2.6 31 .35 1.25-.8 15.05-1.35 15.9-.4.7-1.15.8-1.45.25zm4.05-53.4c.85-2.9 2.5-7.6 3.15-8.85.25-.5.45-1.15.45-1.45 0-.55 1.5-4.2 3.85-9.45l1.25-2.8-2.3-3.7c-2.6-4.3-2.6-4.2-5-10.25-1-2.45-1.8-5.2-1.8-6 0-1.85-.8-2.75-2.3-2.75-1.4 0-1.55.25-2.5 3.85-1.15 4.45-3.6 10.05-6 13.7-1.2 1.85-2.2 3.5-2.2 3.7 0 .25 1.05 1.65 2.3 3.2s2.8 3.8 3.45 5.05c1.45 2.9 3.55 9.45 4.25 13.25.95 5.2 1 5.35 1.85 5.15.55-.1 1.1-1.1 1.55-2.65zm-93.65-126.5c1.65-.4 4.15-.7 5.6-.75 2.85 0 3.95-.75 1.8-1.2-.8-.15-6-.1-11.6.15s-10.55.35-11 .25c-9.95-2.15-17.25-4-19.05-4.85-3.4-1.55-6.9-4.75-8.25-7.5-1.3-2.55-1.45-3.8-.9-7.05.25-1.6.6-2.05 2.1-2.65 1-.4 1.9-.85 1.95-.9.1-.1-.4-1.65-1.1-3.45-.7-1.75-1.3-3.8-1.3-4.55 0-.7-.55-2.35-1.2-3.65-2.25-4.55-2.7-15-1-23.95.25-1.4.15-1.65-.7-1.65-1.9 0-5.25 1.5-7.3 3.3-6.95 6.05-8.2 8.35-8.64998 16.05-.3 4.8-.24999 5.25 1.04998 7.85 1.7 3.45 3.5 5 7.05 6.05 3.25.9 4.4 2.35 4.35 5.4 0 2.6 1.15 7.4 2.4 9.9.55 1 2.65 3.4 4.7 5.3 2.95 2.7 4.35 3.6 6.65 4.3 1.6.5 3.6 1.15 4.4 1.45.85.25 2.4.75 3.5 1s2.9.8 4 1.15c2.85.95 18.5.95 22.5 0zm38.35-.25c-.65-.55-2.15-1.25-3.25-1.5-1.15-.3-2.8-.9-3.7-1.3-.85-.4-1.85-.7-2.25-.7-.35 0-1.1-.3-1.65-.7-.9-.65-6.9-2.25-14.3-3.85-1.85-.35-5.3-.5-9.75-.35-8.7.35-15.9-.3-18.8-1.6-1.15-.55-2.65-1-3.3-1-.6 0-1.95-.45-2.95-1-1.05-.55-2.25-1-2.65-1s-1.75-.7-3-1.5c-1.25-.85-2.95-1.85-3.85-2.25-.85-.35-2.05-1.35-2.7-2.2-.6-.85-1.4-1.55-1.7-1.55-.35 0-1-.45-1.5-1-1.15-1.3-2-1.25-2.95.1-2.1 3-.25 8.65 3.65 11.1 3.05 1.95 7.85 3.8 9.8 3.8 1 0 3.2.5 4.9 1.1 2.65.9 4.3 1.1 11.05 1.15 4.4.05 9.2-.1 10.7-.3 3.8-.55 22.5.8 23.9 1.7.3.15 2.2.8 4.25 1.35 2.05.6 4.7 1.4 5.95 1.75 1.25.4 2.95.7 3.75.7h1.5zm-15.8-1.1c-1.2-.7-7.8-1.15-7.8-.55 0 .25 1.65.7 3.65.95 3.95.5 5.5.35 4.15-.4zm126.9-2.9c.7-.25 1.3-.7 1.3-1 0-.65-2.3-.65-3.55 0-2.2 1.2-.35 2 2.25 1zm39.05-3.65c7.7-.05 16.7.15 20.05.35 4.15.3 6.9.25 8.75-.15 5-1.05 11.25-6.3 13.8-11.45 1.05-2.2 1.3-3.4 1.3-6.3-.05-1.95-.4-4.55-.85-5.75s-.8-2.35-.8-2.55c0-.65 4.2-2 6.15-2 1.05 0 2.5-.3 3.25-.7 2.15-1.15 5.3-4.85 6.2-7.3 1.75-4.75 2.15-10.45.8-11.3-.9-.55-1.45.6-2 4.1-.55 3.8-2.15 7.35-4 9.05-1.15 1.05-2.2 1.3-5.3 1.2-3.7-.1-1.85-3.55 1.95-3.55 1.45 0 2.2-.35 3.15-1.35 1.4-1.45 2.6-6 2.05-7.65-.3-.85-3.65-2.85-6.35-3.7-.65-.2-.75-.55-.45-1.65.5-1.9 1.7-2 4.55-.45 3.7 2 5.4 1.5 2.75-.85-2.1-1.9-2.95-2.7-4.05-3.9-4.05-4.45-13.4-8.25-16.15-6.5-.7.45-.45 1.15 1.65 4.25.6.9 1.95 4.1 3 7.05 3.05 8.65 2.5 14.65-2.3 23.85-1.8 3.45-2.75 4.65-5.85 7.25-4.05 3.35-11.6 7.4-14.8 7.9-1.05.2-2.55.65-3.3 1-.7.4-3.05.85-5.25 1.05-2.15.2-4.5.6-5.2.95s-2.95.75-5 .95c-2.05.15-5.3.75-7.25 1.25-3.95 1.05-9.65 2.45-12.25 3.05-.95.2-2.6.75-3.6 1.2-1.05.45-2.6.8-3.55.8-.9 0-2.1.3-2.65.7-.9.7-.9.75.55 1.1 1.4.35 2.1.2 11.6-2.8 1.7-.55 4.2-1 5.5-1 1.35 0 4.35-.5 6.7-1.05 3.9-1 5.05-1.05 16.4-.8 13.4.3 20.35-.3 23.25-2.1 2.05-1.3 4.95-6.1 5-8.4.05-2.2 1.3-3.2 2.55-2.15 1.25 1 .7 5.4-.95 8.25-1.2 2-4.65 5.25-5.65 5.25-.2 0-1.3.5-2.4 1.1-2.1 1.15-1.75 1.1-30 .8-3.3 0-19.5 1.8-20.85 2.35-1.8.7-.25 1.25 2.75.95 1.7-.15 9.4-.3 17.1-.35zm-38.15-48.4c-.65-8.65-6.15-14.95-13.15-14.95-5.5 0-8.25 3.05-7.1 7.85.65 2.75 2.2 2.85 3.9.2l1.25-2.05h3.25c3.2 0 3.35.05 5.45 2.2 1.9 1.9 3.9 5.25 5 8.45.6 1.8 1.55.6 1.4-1.7zm-114.65-3.3c3.05-4.1 6.55-5.75 10-4.7 4.15 1.2 4.9.55 3.75-3.25s-1.85-4.45-4.6-4.4c-5.8.15-11.6 6-11.6 11.75 0 2.35.95 2.55 2.45.6zm149.65-5.9c1.3-.35 3.35-1.25 4.5-1.95 3.25-1.9 8.6-7.65 10.4-11.15 1.4-2.7 1.55-3.45 1.25-5.5-.15-1.35-.1-3.4.2-4.6.95-4.35-1.4-5.5-3.85-1.9-1.95 2.75-6.55 7.35-7.45 7.35-.4 0-3.4 2.7-6.7 6s-6.3 6-6.65 6c-.4 0-.85-.75-1-1.6-.3-1.75-3.5-5.35-8.25-9.4-4.45-3.8-5.3-3.85-5.8-.4-.75 4.85 3.45 10.75 9.7 13.75 2.1 1 3.95 2.05 4.15 2.3.15.3 1.85.8 3.75 1.1 1.85.35 3.4.65 3.4.7 0 0 1.05-.3 2.35-.7zm-173.7-20.3c.5-.9.6-2.8.4-7.3-.4-10.45-3.55-17.5-11.05-24.9-3.2-3.15-7.25-8.85-7.25-10.15 0-.3-.3-1.15-.7-1.95-.4-.75-1.1-3.3-1.55-5.65s-1.15-5.65-1.55-7.35c-.75-3.4-.95-8.15-.3-7.4.25.3 1.4 3.55 2.6 7.25 2.6 8.2 3.3 9.6 9.1 18.15 1.85 2.75 3.3 4.35 4.1 4.55 1.5.35 4.4 4.65 5.95 8.8 2.05 5.55 2.95 10.35 2.85 15.5-.05 2.6-.1 5.05-.05 5.4.05.7 2.05.85 2.05.15 0-.25.85-1.55 1.9-2.9l1.95-2.4-.45-6.5c-.2-3.55-.85-9.3-1.45-12.7-.95-5.55-1.3-6.7-3.85-11.55-3.9-7.4-7.35-12.6-10.6-16-3.4-3.6-8.1-11.3-9.15-15-.4-1.5-.9-5-1.05-7.75l-.3-5 1.75 4.75c1 2.6 2 5.45 2.2 6.25 1 3.5 1.9 4.9 7 10.5.7.85 2.1 2.6 3.05 3.95s2.65 3.4 3.8 4.5c2.65 2.65 5.8 7.9 6.65 11.05 1.85 6.9 3 14.7 3.05 20.4 0 4 .1 4.35 1 4.35 1.25 0 1.65-.85 2.75-5.65.85-3.7.85-4.05.05-8-.5-2.25-1.05-5-1.3-6.1-1.15-5.75-4.95-17-6.75-20-.7-1.2-1.25-2.45-1.25-2.8s-.3-1-.65-1.4c-.4-.45-1.4-2.45-2.3-4.5-1.85-4.3-3.1-6.1-7.35-10.55-3.5-3.7-6.45-7.3-8.35-10.35-.95-1.5-1.7-2.15-2.7-2.25-1.3-.15-1.4-.3-1.25-2 .15-1.4-.05-1.95-.8-2.35-1.35-.75-1.6-.3-1.6 3 0 2.75.05 2.9 1.4 3.05 1.05.1 1.4.45 1.5 1.5.15 1.15-.05 1.35-1.25 1.5-1.3.15-1.4.35-1.5 2.4-.25 4.7-1.3 10.9-2.65 15.5-.75 2.6-1.55 5.65-1.75 6.75s-.9 3.65-1.6 5.65c-1.25 3.6-1.25 3.65-.45 7 .45 1.85 1.15 5.7 1.5 8.6.4 2.9 1.3 7.05 2.05 9.25 1.35 4.2 3.5 8.25 4.25 8.25.95 0 6.4 7.45 8.25 11.25 1.95 4.05 2.6 7.4 3 15 .05 1.65.15 3.2.2 3.4.1.7 7.7-5.8 8.45-7.2zm169.1 5.8c.6-.55.9-1.3.75-1.75-.3-1 1.95-12 2.8-13.6.3-.55.95-2.2 1.45-3.6.5-1.45 1.9-4.3 3.15-6.35 2.15-3.55 3.85-8 3.85-10.15 0-.6.3-1.65.7-2.4s1.3-3.95 2.05-7.1c.9-3.8 1.6-5.8 2.05-5.8.55 0 .6 1.2.4 5.9-.35 6.85-1.75 13.5-3.45 16.35-.65 1.1-1.95 3.6-2.95 5.5-.95 1.95-2.55 4.75-3.5 6.25-1 1.5-1.8 3.15-1.8 3.65s-.25 1.35-.55 1.9-.85 2.1-1.2 3.35c-.35 1.3-.8 2.85-1 3.5-.3.95-.2 1.1.9 1.1 1.75 0 8.3-7.3 10.25-11.4 1.35-2.8 3.05-8.6 4.55-15.35 2-8.9 2.5-22.7 1-25.5-.9-1.6-2.65-6.15-3.2-8.25-.2-.7-1.35-3.4-2.55-6-3.4-7.4-4.2-11.25-4.55-21.85-.3-8.35-.4-9.15-1.2-9.15-1.3 0-3.2 2.15-7.25 8.25-.7 1.1-1.85 2.55-2.5 3.25-.6.7-1.5 2.15-1.95 3.25-1.55 3.75-2.95 6.5-4.05 8-.6.85-1.3 2.2-1.5 3-.2.85-.75 2.05-1.3 2.7-.5.65-.9 1.45-.9 1.75 0 .35-.45 1.45-1 2.55s-1 2.45-1 3c0 .6-.2 1.25-.45 1.5-1.05 1.1-4.2 7.7-4.85 10.2-1.9 7.2-2.25 12.35-1.25 19.3.3 2.2.75 5.45 1 7.25.95 7.35 3.25 13.3 6.75 17.7 2.65 3.3 4.55 6.25 5.5 8.55.8 1.85.8 1.9 3.3 1.65 1.45-.15 2.95-.65 3.5-1.15zm-179.8-2.5c-.15-5.05-4.3-14.5-8.4-19.25-3.85-4.45-5.65-7.55-7.4-12.65-1.35-3.95-1.6-5.35-1.65-9.85-.05-4.9-.1-5.25-1.1-5.4-.9-.15-1.05.2-1.3 3.25-.8 8.45-.15 15.9 1.85 21.4.4 1.1.75 2.7.8 3.55 0 3.25 14 21.4 16.25 21.1.8-.15 1-.5.95-2.15zm157.25-12.2c.7-.45.2-2.6-1.95-9.05-.8-2.3-1.55-11.8-1.2-15.55.15-2.05.95-6 1.75-8.85.8-2.8 1.45-5.45 1.45-5.85 0-1.1-3.1-.95-4.65.25-.7.55-1.45 1-1.75 1-.25 0-1.05.45-1.8 1.05-2.25 1.75-3.65 8.25-4.1 18.6-.45 10.55.9 14.2 6.25 17.2 2.85 1.6 4.75 2 6 1.2zm51.85-7.55c3.45-5.8 3.8-7.55 3.55-16.1-.35-9.15-.6-10.9-2.1-14.15-1.2-2.55-3.25-4.25-5.2-4.25-.9 0-1.05.3-1.05 1.9 0 1.05.3 3.05.7 4.4.35 1.35.7 2.9.7 3.45s.15 1.9.35 3c.4 2.3-.25 8-1.8 16.25-.55 3.15-1.15 6.4-1.3 7.15-.25 1.4-.25 1.4 2.15 1.25 2.3-.15 2.45-.25 4-2.9zm-234.2-1.85c.65-.75.7-1.4.3-3.65-1.35-7.65-.45-17.45 2.4-27.4.65-2.25 1.2-4.35 1.2-4.6 0-1.2-3.7-.45-6.25 1.25-2.65 1.75-2.65 1.75-4.55 7.6-1.65 5.05-1.95 6.65-2.1 11.35-.2 5-.1 5.75 1.2 9 1.45 3.75 4.4 7.3 6.1 7.3.5 0 1.3-.4 1.7-.85zm55.9-2.9c2.15-2.75 2.35-3.3 2.65-6.6.3-3.55-.65-13.9-1.6-17.9-.8-3.25-3.05-8.4-4.2-9.65-.6-.65-1.95-1.65-3.05-2.2-2.75-1.4-3.2-.65-1.65 2.95.65 1.6 1.55 4.95 2 7.4.45 2.5 1.05 6.1 1.4 8 .7 4.05.85 15.35.25 18.9-.4 2.35-.4 2.45.7 2.25.75-.1 2.1-1.3 3.5-3.15zm173.5-37.75c2.45-1.3 2-6.3-1.2-13.15-.9-1.95-2.15-4.65-2.7-5.95-1.15-2.65-2.45-3.55-4.75-3.3-2.15.2-2.3 1.55-.65 5.2.7 1.55 1.3 3.2 1.3 3.65s.35 1.45.75 2.2 1.65 3.6 2.8 6.25c1.75 4.15 2.6 5.55 3.35 5.6.1 0 .6-.2 1.1-.5zm-40-8.6c1.5-2.95 3.1-5.75 3.55-6.25 1.15-1.35 2.95-4.45 2.95-5.1 0-.35-.8-.95-1.85-1.35-2.6-1.1-4.7-.55-6.75 1.75-2.05 2.4-5.4 7.7-5.4 8.65 0 .4-.2.9-.45 1.2-.3.25-.3 1.35 0 2.85.4 1.75.9 2.55 1.85 3.1 2.55 1.4 3.15.9 6.1-4.85zm-144.6 1.5c.35-.35.6-1.8.6-3.3 0-3.65-2.3-7.95-6.25-11.7-2.95-2.85-4.35-3.4-6.45-2.6-1.4.55-.95 1.3 3.95 6.75.4.4 1.65 2.65 2.8 5 1.85 3.85 3.65 6.45 4.45 6.45.15 0 .55-.25.9-.6z"/><path d="m161.75 469.5c-.15-.25-.15-.7 0-1 .45-.7-2.05-9.3-3.15-10.85-.55-.8-1.6-1.95-2.3-2.6-1.65-1.55-1.65-2.15.1-5 .75-1.25 1.8-3.35 2.3-4.65s1.1-2.5 1.35-2.65c.25-.2.45-.85.45-1.55 0-1.1 1.2-2.2 1.8-1.6.1.15.6 1.35 1.1 2.7 1 2.75 3.4 7 4.7 8.3 1.25 1.25 1.15 2.2-.5 4.35-2.1 2.7-3.6 7.35-3.6 11.15 0 2.55-.2 3.35-.8 3.6-1.05.4-1.1.4-1.45-.2zm-144.6-155c-2-1.45-2.4-2.2-3.65-6.35-.95-3.1-.3-7.05 1.5-9.25 1.7-2.05 3.8-2.8 4.9-1.75 1 1-.05 2.85-1.6 2.85-.65 0-1.8.5-2.55 1.1-1.3 1-1.35 1.25-1.1 3.8.25 2.4.6 3.05 2.45 4.95 1.15 1.15 2.4 2.15 2.8 2.15.95 0 3.6 1.45 3.6 2 0 .9-1.6 2-2.95 2-.75 0-2.25-.65-3.4-1.5z"/><path d="m18.1 306.4c-.75-.75-.75-1.75-.1-2.15.75-.5 2.5.25 2.5 1 0 1.05-1.7 1.85-2.4 1.15zm289.65-6.9c-.2-.3-.2-1.1-.05-1.8.25-.95.6-1.25 1.45-1.1 1.6.2 1.6 3.1 0 3.3-.55.1-1.2-.1-1.4-.4zm-233.9-48.35c-.2-.15-.35-.85-.35-1.5 0-.8.3-1.15 1-1.15 1.05 0 2.25 1.7 1.75 2.5-.35.55-1.9.65-2.4.15zm-4.7-9c-.35-.15-.65-.9-.65-1.7 0-1.1.25-1.45 1-1.45s1 .35 1 1.45c0 1.6-.35 2.05-1.35 1.7zm15.05-4.9c-.15-.4-.15-.95 0-1.2.5-.8 1.8-.05 1.8 1 0 1.1-1.4 1.3-1.8.2zm-20.55-3.1c-.35-.1-.65-.9-.65-1.75 0-1.25.15-1.45 1.15-1.3.85.1 1.1.5 1.1 1.6 0 1.5-.5 1.9-1.6 1.45zm14.6-8.2c-.2-.6-.1-1.3.15-1.55.85-.85 2.1-.05 2.1 1.35 0 1.6-1.75 1.75-2.25.2zm-18.9-3.25c-.7-.75-.3-1.7.7-1.7.7 0 .95.25.85.85-.15.9-1 1.35-1.55.85zm14.15-4.95c-.55-.65-.55-.95.15-1.6 1.05-1.05 2.45-.45 2.25.95s-1.5 1.75-2.4.65zm-5.4-8.6c.1-.5.6-.9 1.15-.9s1.05.4 1.15.9c.15.65-.15.85-1.15.85s-1.3-.2-1.15-.85zm-3.95-9c-.35-.15-.65-.7-.65-1.25 0-.7.3-.95 1.1-.8.65.1 1.2.5 1.3.95.15.9-.75 1.45-1.75 1.1zm179.2 54.25c-.35-8.1.35-14.95 1.75-16.75.7-.85.05-1.65-1.35-1.65-1.9 0-2.75-.55-2.75-1.75 0-1.6.8-2 2.25-1.05 1.85 1.2 2.65 1 3.65-1.05.5-1.05 1.7-3.35 2.7-5.15 7.35-13.55 10.25-20.75 10.6-26.25.1-1.75.35-2.5.85-2.5 1.05 0 .95 7.5-.2 12.5-1.15 5.05-3.25 11.7-4.15 13-.4.55-.7 1.3-.7 1.65 0 .4-.75 1.95-1.7 3.5-7.6 12.85-7.3 12-8.3 24.45-.6 7.2-.8 8.15-1.7 8.15-.5 0-.75-1.85-.95-7.1zm6.2-2.85c-.95-.6-.3-2.05.95-2.05s1.9 1.45.95 2.05c-.4.25-.8.45-.95.45s-.55-.2-.95-.45zm3.65-10.8c-.4-1.05.15-2.25 1-2.25s2.4 1.95 2 2.6c-.45.7-2.7.45-3-.35zm-15.9-1.15c-.15-.25-.55-3.8-.85-7.8-.45-6.4-.4-7.85.3-11.2 1.65-7.4 2.7-9.55 8.75-17.85 2.55-3.45 7-11.95 7-13.35 0-.4.45-2.05.95-3.7.55-1.6 1.35-4.25 1.8-5.8 1.85-6.75 2.25-.65.45 7.5-.4 1.85-.85 4-1.05 4.8-.15.8-.95 2.75-1.7 4.25-.8 1.55-1.45 3.1-1.45 3.45 0 .4-.45 1.25-1 1.95s-1 1.6-1 1.95c0 .4-.75 1.75-1.65 3.05-2.6 3.7-5.2 9.1-6.8 14.2-1.55 5.05-2.6 9.25-2.6 10.45.15 5.6.05 7.7-.35 8.1-.3.3-.6.3-.8 0zm20.7-8.85c-.8-1-.3-2.25.95-2.25 1.1 0 2.3 1.7 1.8 2.5-.45.75-2.05.6-2.75-.25z"/><path d="m245.15 224.15c-.35-.1-.65-.7-.65-1.2 0-.8.3-1 1.4-.85.95.1 1.35.45 1.35 1.15 0 1-.95 1.4-2.1.9zm17.1-5.15c-.2-.35-.15-.8.15-1.1.65-.65 2.7 0 2.45.75-.25.8-2.15 1.05-2.6.35zm-13.05-5.75c-.2-.45-.1-1.05.2-1.35.75-.75 2.2-.05 2 .95-.2 1.15-1.8 1.45-2.2.4zm4.05-9.75c-.2-.35-.15-.8.15-1.1.7-.7 2.35-.3 2.35.6s-2 1.3-2.5.5zm2.6-8.35c-.65-.6-.35-1.15.65-1.15.55 0 1 .35 1 .75 0 .75-1.05 1.05-1.65.4zm-208.4 206.35c-.7-1.9-2.3-2.05-2.75-.25-.15.7-.55 1.25-.8 1.25-.3 0-.35-.45-.15-1.1s.6-2.25.95-3.6c.35-1.4.9-2.6 1.2-2.7 1-.3 1.95.8 2.3 2.65.15.95.45 2.55.6 3.5.4 2.2-.65 2.4-1.35.25z"/><path d="m52.6 399.3c-1.15-3.7-3.75-7.8-5.55-8.75-1.7-.9-3.35 1.35-5.45 7.35-.9 2.6-1.65 3.9-2.2 4-.65.15-.9-.15-.9-1.1 0-2.05 2.9-9.35 4.5-11.35.8-1.05 1.75-2.45 2.05-3.15.75-1.6 2.25-1.7 2.75-.15.2.6 1 1.85 1.8 2.75 4.4 5.05 7.65 14.1 5.05 14.1-.7 0-1.2-.95-2.05-3.7zm50.25 2.85c-.2-.15-.35-1-.35-1.85 0-1.75-4.1-9.15-5.3-9.65-2.05-.8-4.8 1.95-5.95 6-.65 2.15-2.25 5.35-2.75 5.35-1.95 0 1.95-10.7 4.75-12.9.7-.55 1.25-1.25 1.25-1.55s.85-.55 1.95-.55c1.85 0 2 .15 4.5 4.05 3.2 4.9 3.55 5.85 3.55 9 0 1.7-.2 2.45-.65 2.45-.4 0-.85-.15-1-.35zm122.25-.9c.3-.65.7-1.1.95-1 .6.4-.1 2.25-.85 2.25-.55 0-.55-.25-.1-1.25z"/><path d="m97.55 400.85c-.6-1.55-1.9-1.75-2.85-.45-.9 1.15-.85.2.05-2.4.4-1.2.65-2.55.5-3-.3-1 .8-2.1 1.55-1.6.85.6 2.4 7.6 1.75 8.25-.35.35-.65.1-1-.8zm131.65-.4c-.6-1.25-1-1.5-2-1.3-1.15.2-1.2.1-.9-1.6.6-3.3 1.15-4.25 1.95-3.55.4.3.85 1.1 1.05 1.65.15.6.75 2.05 1.3 3.25 1.4 3.1.15 4.55-1.4 1.55zm50.65-.65c-.35-.9-2.1-1.1-2.6-.3-.7 1.15-1.2.4-.6-.85.4-.8.9-2.3 1.1-3.4.55-3.05 2.25-4.6 2.25-2.05 0 .7.25 2.35.6 3.75.4 1.8.4 2.75.05 3.1s-.6.3-.8-.25zm-120.15-6.6c.15-1.25.05-2.7-.2-3.2s-.6-5.4-.75-10.85c-.1-5.45-.55-11.6-.9-13.65-.8-4.05-3.1-10.25-5.35-14.25-.8-1.35-1.8-3.95-2.25-5.75-.85-3.4-3.45-8.2-5.75-10.75-.75-.8-2.05-2.5-2.9-3.75-.8-1.25-3.05-3.6-4.95-5.25-6.4-5.5-9.1-8.5-10.65-11.8-2.35-5.05-2.1-11.3.6-16.45 1-1.85 1.55-2.3 3.9-3.1 2.3-.8 3.15-.9 5.45-.45 1.5.3 3.75.55 5 .55 1.95 0 2.8.35 5.3 2.25 1.65 1.2 4.05 3.5 5.35 5.1 2.3 2.75 3.2 4.35 6.1 10.8 1.85 4.05 2.2 3.9 4.8-2.15 1.55-3.5 7.75-12.45 8.65-12.5.25 0 1.4-.8 2.55-1.75 4.8-3.9 8.5-5.05 11.5-3.5.75.4 1.85.75 2.45.75 1.95 0 5.45 2.2 6.95 4.4s1.5 2.25 1.3 7.55c-.15 3.8-.5 5.8-1.15 7.05-2.2 4.3-7.4 10.8-13.7 17.25-3.8 3.85-7.2 7.5-7.6 8.05-.4.6-1.6 2.4-2.75 4-1.1 1.65-2.55 4.3-3.2 5.95-.6 1.65-1.75 4.45-2.5 6.25-2.45 5.9-3.85 18.6-3.25 30.65.35 7.8-.1 10.85-1.6 10.85-.65 0-.75-.4-.45-2.3zm.9-35.3c1.1-.9 1.45-5.1.55-6.4-1.65-2.35-3.25-.3-2.8 3.55.3 2.75.5 3.45 1.05 3.45.2 0 .75-.3 1.2-.6zm3.3-10.75c.75-2 .7-2.1-.75-4.5-.85-1.35-1.7-2.95-1.9-3.6-.25-.85-.65-1.05-1.6-.95-1.15.15-1.4.55-2.2 3.65-1.25 4.85-1.2 6.25.1 6.25.7 0 1.2-.5 1.6-1.5.7-1.9 1.6-1.65 1.65.45 0 1.55.95 2.7 1.9 2.4.25-.1.8-1.05 1.2-2.2zm-7.7-6.25c.4-.65 1.25-2.45 1.85-4.05.9-2.4 1.3-2.85 2.15-2.75.6.1 1.1.6 1.2 1.15.05.55.75 2.3 1.45 3.9 1.2 2.55 1.5 2.9 2.65 2.75 1.35-.15 2.95-2.7 3-4.75 0-.65-1.3-3.85-2.85-7.15-3.2-6.65-4.4-7.6-4.95-4-.35 2.05-1.7 2.9-1.7 1.05 0-.85-1.3-2.45-1.7-2-.55.6-2.55 5.7-3.55 8.95-.85 2.9-1 4.1-.65 5.25.25.8.55 1.8.7 2.15.3.95 1.6.7 2.4-.5zm-3.75-6.55c.3-.4.9-2.1 1.35-3.9.45-1.75 1.1-3.7 1.5-4.3s.7-1.5.7-2c0-.45.45-1.35 1.05-1.95 1.05-1.1 1.05-1.15.15-3.8-.9-2.75-3.05-6.4-3.75-6.4-1.1 0-1.95.75-1.95 1.7 0 .6-.45 1.85-.95 2.85-.55 1-1.2 2.7-1.5 3.8-.5 1.85-1.8 3.6-2.25 3.1-.2-.2 0-.9 3.15-8.9l2-5.2-1.35-2.05c-1.1-1.55-1.7-2.05-2.75-2.05-1.15.05-1.35-.15-1.35-1.3 0-.85-.45-1.6-1.25-2.15-2.45-1.6-3.05-1.15-5.5 3.8-1.25 2.55-2.25 4.85-2.25 5.15s-.45 1.4-1 2.5c-1.35 2.6-1.25 3.15.6 5.1 2.65 2.75 3.45 2.35 5.1-2.7 1.75-5.4 3.25-8.9 3.6-8.5.35.35-.85 4.25-3.05 9.6-1.05 2.6-1.7 4.9-1.55 5.5.5 2.05 2.3 3.75 3.9 3.75 1.35 0 1.45.1 1.15 1.4-.2 1.1 0 1.65 1.05 2.6.7.7 1.75 2.1 2.25 3.15 1 1.9 1.95 2.3 2.9 1.2zm21.5-3.05c1.7-2 3.85-4.4 4.85-5.25.95-.9 1.7-1.8 1.6-1.95-.1-.2-.95-1.9-1.85-3.85-.95-1.9-2.1-3.95-2.6-4.55-.55-.55-1.8-3.05-2.85-5.5-2.2-5.1-3.25-5.8-5.05-3.3-1.45 2.05-1.35 4.15.2 5.6.7.65 1.25 1.45 1.25 1.8s1.25 3 2.75 5.95c2.75 5.4 3.55 7.75 2.05 6.25-.4-.4-2.3-3.65-4.15-7.25-2.95-5.6-3.6-6.5-4.65-6.5-1 0-1.3.4-2 2.6-.4 1.4-.9 2.75-1.1 2.95-.8.75-.3 2.25 1.85 5.55 1.25 1.85 2.5 4.3 2.8 5.4.8 2.85 2.35 5.75 3.15 5.75.35 0 2.05-1.65 3.75-3.7zm11.45-11.1c2-1.35 3-2.45 3.7-4.05.95-2.15.95-2.35.15-4.55-1.5-4.3-1.5-4.1-.05-4.1 1.3 0 1.35-.1 1-1.85-.6-3.4-1.1-4.25-2.35-4.05-1.1.15-1.2.65-.55 2.85.25.85.2 1.1-.2.85-.35-.2-1.05-1.95-1.65-3.95s-1.35-3.9-1.6-4.3c-.7-.85-4.2-.45-5.25.65-.7.7-.65 1.05.55 3.65.75 1.6 1.8 4.4 2.35 6.3.5 1.85 1.6 4.65 2.45 6.2s1.55 3.05 1.55 3.3c0 .9-1.4-.7-2-2.3-.5-1.35-5.15-11.3-6.45-13.85-1.15-2.2-5.35 0-4.9 2.5.35 1.85 4.6 11.75 5.75 13.35.55.8 1.35 2.25 1.75 3.3 1.05 2.4 2.15 2.4 5.75.05zm-50.85-7.05c.25-.8.8-2.05 1.2-2.9.35-.8 1.55-3.4 2.55-5.7l1.9-4.15-1.2-1c-1.8-1.45-3.85-1.05-4.95 1.1-1.55 3-2.45 5.15-3.4 7.85-.8 2.45-.8 2.7 0 4.35 1.1 2.3 3.1 2.55 3.9.45zm-2.9-9.7c1.2-2.1 1.1-2.95-.4-2.95-1.35 0-2.25 1.25-2.25 3.2 0 1.85 1.55 1.7 2.65-.25z"/><path d="m159.5 302.15c0-3.05-.45-8.4-2-25.15-.45-4.9-.85-7.95-2.8-19.9-.9-5.65-3.55-13.45-5.95-17.5-1.9-3.15-8.3-9.95-15-15.9-3.25-2.9-4.1-3.95-4.6-5.75-.8-2.8-1-7.3-.35-7.95.3-.3 1.4.15 2.95 1.15 2.7 1.75 7 3.7 9.65 4.35.9.2 1.9.6 2.25.9.75.6 4.7 1.55 5.05 1.2.8-.8-4.55-7.05-9.4-11-11.7-9.4-15.55-13.05-17.65-16.6-.868-1.426-1.751-2.843-2.65-4.25-2.2-3.3-3-6.4-3-11.9 0-7.2 1-10.45 6.75-21.85 1.6-3.15 2.45-4.3 3.25-4.4 1.05-.2 1.1-.05.7 1.75-.55 2.55-.55 5.1.2 13.2.35 4.1 1 8 1.65 9.75.55 1.65 1.3 3.85 1.65 4.95 1.45 4.35 4.45 9.1 8.7 13.7 5.35 5.8 9.8 10.25 12.05 11.95 2.75 2.15 8.45 9 9.85 11.95 1.6 3.25 2.05 3.6 2.7 1.95 1-2.7 7.35-11.3 18.2-24.55 8.6-10.55 12.1-18.65 12.7-29.35.1-2.4.4-4.25.65-4.1 1.25.75 0 13.4-1.7 17.2-.4.95-1.25 3-1.85 4.5-1.5 3.6-5.45 9.8-7.75 12-1.05.95-2.65 3-3.6 4.5-1 1.5-3.55 4.8-5.7 7.3-2.2 2.55-3.95 4.8-3.95 5 0 .25-.5 1-1.05 1.7-1.95 2.45-3.3 4.8-5.15 9.4-1.05 2.5-2.1 4.6-2.3 4.6-.6 0-1-1.4-1-3.3 0-2.3-2.55-7.25-5.45-10.55-1.25-1.45-6.7-7.1-12.05-12.5-9.7-9.8-12.55-13.5-14-18-.35-1.05-1.15-2.95-1.8-4.25-1.65-3.3-2.15-5.75-2.7-13.35-.3-3.7-.6-6.85-.75-7-1-1-3.15 3-5.3 9.7-2.3 7.4-1.35 13.2 3.4 20 2 2.9 10.85 11.55 15.9 15.5 4.85 3.8 9 8.05 11.1 11.25 1.15 1.8 2.6 3.95 3.15 4.75 2.7 3.85 6.1 10.25 6.85 12.9.7 2.5.95 2.85 2.05 2.85 1.2 0 1.25-.05.95-3-.35-2.95-.3-3 .9-3 .8 0 1.4-.35 1.55-.85.75-2.55 2.9-6.35 5.65-10.05 3.95-5.35 5.5-7.1 12.85-14.35 8.5-8.45 12.9-13.9 16.25-20.25 1.05-2 1.2-2.9 1.2-8 0-5.2-.15-6.25-1.75-11.15-1.7-5.4-1.75-5.45-3.15-5.15-1.85.35-2.35-1-2.35-6.25 0-3.85.05-4 1.1-3.85.8.1 1.7 1.45 3.7 5.4 1.4 2.9 2.85 6.45 3.2 7.85.3 1.45 1.1 4.05 1.8 5.75 2.05 5.25 1.3 12.15-1.95 17.5-7.1 11.8-10.4 15.75-26.9 32-2.75 2.7-4.95 5.1-4.95 5.4 0 .9 2.15.55 3.25-.5 1.5-1.55 7.5-5.35 10.7-6.85 2.95-1.35 5.7-3.5 9.2-7 1.3-1.3 2.35-1.95 2.7-1.75.45.3-.7 3-4.05 9.7-3.65 7.35-5.35 10.2-8.15 13.55-1.95 2.35-3.85 4.75-4.15 5.4-.35.65-1.8 2.8-3.2 4.7-3.1 4.15-5.1 7.7-7.05 12.5-.8 1.95-1.7 3.85-2.05 4.25-.9 1.1-2.4 8.25-2.5 12.25-.1 3.9-1.4 14.55-2 16.35-.2.65-.3 3.3-.25 5.9.1 4.8-1.35 16-2.05 16-.25 0-.4-1.5-.4-3.35z"/><path d="m161.9 209.75c-.85-1.35-1.35-6.95-1.35-15.8-.05-9.95-.4-17.1-.9-18.45-.15-.4-.45-3.65-.65-7.25-.3-5.1-.65-7.35-1.75-10.5-.75-2.2-1.7-4.35-2.1-4.85-.4-.45-.65-1.25-.55-1.75.05-.55-.25-1.55-.7-2.2-.45-.7-1.1-2.3-1.4-3.5-.35-1.2-1.5-4.35-2.6-6.95s-2.2-5.6-2.45-6.7c-.25-1.05-.8-2.5-1.15-3.25-1.35-2.6-2.4-8.75-2.35-13.55.05-7.8.35-10.65 1.2-12.3.45-.85 1.25-3.1499 1.75-5.0999 1.2-4.45 3.3-8.1 4.65-8.1 1.75 0 1.65-1.4-.25-3.7-2.1-2.6-5.05-3.8-9.35-3.8-3.75 0-6 .85-10.75 4.1-5 3.45-6.8 6-8.1 11.5-.85 3.8499-.9 4.5499-.25 9.3999.4 2.9.9 6.15 1.15 7.25.5 2.3 3.6 7.7 5.7 9.95 1.9 2.05 2.55 3.9 1.8 5.3-.75 1.45-2.5 2-4.55 1.5-6.4-1.6-6.85-1.85-14.65-6.95-2.25-1.5-5-4.8-6.8-8.2-.95-1.8-1.5-2.35-2.25-2.25-.8.1-1.05.6-1.15 2.65-.2 2.5 1.1 10.15 2 11.9.55 1.05.1 2.65-.85 3-1.1.45-5.6-1.5-8.45-3.65-2.4-1.8-6.8-6.5-6.8-7.25 0-.15-.55-1.1-1.2-2.15-.65-1-1.8-3.7-2.5-6-1.05-3.4-1.3-5.15-1.3-9.5 0-5.4999 1.35-13.6499 2.45-14.7499.3-.3.55-1.05.55-1.6 0-1.8 1.55-5.95 2.75-7.25.6-.7 1.75-2.25 2.5-3.5 1.2-2 6.55-7.5 7.3-7.5.15 0 1.2-.85 2.3-1.9 2.25-2.1 4.15-3.25 8.15-4.95 3.6-1.6 14.45-2.3 15.9-1.05.45.45 1.4.95 2.1 1.15s1.95.8 2.8 1.3c.85.55 1.95.95 2.4.95 1.15 0 10 5.35 12.55 7.6 1.2 1.05 2.3 1.9 2.45 1.9.55 0 .3-1.55-.45-3-1.3-2.55-10.4-9.7-15.45-12.15-6.6-3.25-9.2-4.35-10.25-4.35-.5 0-1.75-.35-2.8-.8-1.55-.65-3-.7-8.45-.4-3.6.2-7.45.35-8.55.35-24-.7-23.25-.65-28-2.2-2.45-.85-5.05-1.85-5.75-2.3-3.1-2-7.95-6.3-8.4-7.55-.3-.75-.65-3.25-.8-5.55-.25-3.7-.15-4.45.8-6.1.55-1.05 1.7-2.15 2.5-2.5.8-.3 1.75-1.05 2.15-1.6.85-1.2 1.75-.9 2.85 1l.85 1.5-2.4 2.45c-7.6 7.65-2.45 15.75 12.15 19.15 4.1 1 5.9 1.05 22.6 1.05 14.6-.05 18.45.1 19.55.65.75.4 2.2.85 3.15 1.05.95.15 2.45.6 3.25 1 5.45 2.55 7.3 3.5 7.5 3.8.15.25 1.3.9 2.55 1.55 1.3.6 3.7 2.35 5.4 3.85 4.9 4.35 7.35 4.9 4.4.95-1.35-1.8-4.55-7.1-6.45-10.6-1.5-2.8-3.75-9.55-4.7-14-1.55-7.45-.8-14.6 2.15-20.5.7-1.35 1.55-3.35 1.85-4.35 1.2-3.75004 3.05-3.65004 3.05.2 0 1.3.45 2.35 1.65 3.8.85 1.1 2.5 3.15 3.6 4.55 3.25 4.15 4.35 3.85 4.95-1.5.65-5.6 2-8.85 5.55-13.35004 1.8-2.3 3.5-4.7 3.75-5.4.85-2.2 2.2-1.35 2.5 1.55.25 2.45 2.15 6.45 3.7 7.75004.45.35.8 1.1.8 1.7s.25 1.35.6 1.7.7 1.35.75 2.25c.7 6.95.7 6.85 1.95 6.85 2.35 0 5-4.1 6.2-9.6.95-4.15004 2.6-4.40004 4.75-.65 2 3.35 5.4 14.55 5.4 17.75.05 9.75-4.6 21.4-11.75 29.45-1.3 1.5-2.4 3.05-2.4 3.4 0 1.25 1.8.65 3.55-1.15.9-.95 2.5-2.25 3.45-2.8.95-.6 2.3-1.55 3-2.2.7-.6 2.25-1.6 3.5-2.25 1.25-.6 2.6-1.4 3-1.7 1.2-.95 5.5-2.25 7.55-2.25 1.05 0 2.5-.25 3.3-.6.95-.4 6.75-.6 19.15-.65 16.9-.1 17.9-.15 20.5-1.15 1.5-.6 3.5-1.1 4.45-1.1 2.6 0 5.75-1.85 9.35-5.6 3.5-3.6 4.45-5.7 3.9-8.7-.15-.9-.85-2-1.65-2.6-1.15-.8-1.35-1.3-1.15-2.55.2-1.4 2.1-3.55 3.15-3.55.2 0 1.05.55 1.85 1.25 1.35 1.15 1.55 1.7 1.85 4.95.45 4.4-.45 7.65-2.9 10.85-3.55 4.6-6.65 6.95-10.5 7.95-1.15.3-2.9.8-3.85 1.1-.95.35-2.85.75-4.25 1-1.35.2-3.95.65-5.75.95-4.3.75-6.55.75-10.75-.1-4.05-.8-20.25-.75-21.8.1-.55.25-2.9.75-5.3 1-2.6.35-4.9.9-5.65 1.45-.7.45-1.85 1-2.65 1.2-.75.15-2.2 1.05-3.25 1.95-1 .9-2.75 2.25-3.85 3-2.45 1.6-9.25 8.05-9.25 8.7 0 .25-.55 1.2-1.25 2.15-1.5 2.05-1.6 3-.2 3 .95 0 3.95-2.55 7.6-6.4 1.35-1.45 3.3-2.7 9-5.95.6-.35 1.5-.65 1.95-.65.5 0 1.75-.45 2.85-1.05 1.75-.9 2.9-1 10.7-1.05 7.05 0 9 .15 10.25.8.85.45 1.8.8 2.15.8.8 0 5.8 2.4 7.7 3.7 4.35 2.95 12.75 12.15 12.75 13.85 0 .35.55 1.8 1.25 3.25s1.55 4.2 1.95 6.05c.4 1.9 1 4.05 1.25 4.8 1.05 2.75.1 16.1499-1.35 18.6999-.3.6-.6 1.4-.6 1.75 0 .4-.65 1.35-1.5 2.15-.8.8-1.5 1.7-1.5 1.95 0 .95-6.4 8.2-8.6 9.7-4.95 3.45-8.9 4.9-8.9 3.2 0-.25.7-1.45 1.5-2.7.85-1.25 1.85-3.6 2.3-5.25 1.35-5.1 0-14.5-2.25-15.4-1.1-.45-2.05.75-2.05 2.7 0 1.05-.6 2.8-1.45 4.3-1.35 2.3-6.95 8.05-10.35 10.55-1.75 1.3-10.75 3.85-11.35 3.25s.05-3.4.8-3.7c.85-.3 4.7-6.9 5.15-8.65.15-.8.65-1.95 1-2.55.95-1.5 1.85-7.9 1.55-10.65-.6-4.8999-2.35-8.7999-5.65-12.5999-1.75-2-3.2-3.8-3.2-4 0-.6-4.75-3.7-7.5-4.85-4.75-2.05-10.35-.7-15.85 3.75-1.5 1.2-2.85 2.2-3.05 2.2-.6 0-2.2 3-2.6 4.7-.3 1.55-.65 1.7-2.85 1-.85-.2-1.15-.1-1.15.45 0 .4-.35 1-.75 1.35-.55.45-.6.8-.2 1.3.3.35.8 1.75 1.15 3 .65 2.5499 1.6 3.3999 2.1 1.8499.7-2.0499 1.75-4.1499 2.15-4.1499.2 0 .95-.8 1.6-1.75 2.7-3.75 7.95-5.65 8.35-3 .05.55.9 2.7 1.8 4.75 2.05 4.4999 3.05 10.4499 2.6 15.5999-1.25 14.65-1.45 15.7-3.3 21.4-1 3.15-2.15 7.2-2.5 9-.8 4.45-3.6 13.4-5.45 17.5-1.25 2.85-3.05 11.45-3.6 17-.2 2.35-.5 5.4-.65 6.75-.1 1.4-.5 6.65-.75 11.75-.6 10.05-1.1 14.55-1.65 13.75zm3.4-52.05c.05-1.7.35-3.55.65-4.1.85-1.55.7-6.7-.25-8-1.1-1.6-3-1.4-4.75.45-1.45 1.55-1.8 2.85-1.05 3.7 1.15 1.3 2.6 6.15 2.6 8.6 0 2.65.05 2.7 1.35 2.55 1.25-.15 1.3-.3 1.45-3.2zm-4.2-14c2.2-1.55 2.4-2.65.8-5.05-1.35-1.95-2.3-2.35-3.95-1.7-1.85.7-2.75 2.65-2 4.45.65 1.5 2.3 3.6 2.9 3.6.2 0 1.2-.6 2.25-1.3zm7.85-1.4c.3-1.25.55-2.35.55-2.5 0-.65-1.35-.2-2.75.9-1.35 1.05-1.4 1.3-.85 2.5.95 2.1 2.4 1.7 3.05-.9zm-.35-5.4c1.05-1.15 1.9-2.25 1.9-2.45s-.45-1.4-1-2.65c-1.2-2.85-2.55-3-5.05-.65-1.55 1.45-1.75 1.85-1.65 4 .15 4.45 2.6 5.2 5.8 1.75zm-11.35-1.45c1-.6 1.7-1.2 1.6-1.4-.05-.15-.75-1.6-1.5-3.15-1.45-3.15-2.5-3.65-4.1-1.9-.85.9-.85 1.25-.25 3.9.35 1.55.75 3 .85 3.25.35.65 1.55.4 3.4-.7zm6.25-5.7c1.3-.95 2.55-2.1 2.7-2.55.4-1.05-2-6.2-2.9-6.2-.35 0-1.6.9-2.85 2-1.2 1.1-2.45 2-2.8 2-1.15 0-1.2 1-.1 3.1 2.05 4.1 2.45 4.2 5.95 1.65zm9.7-1.85c1.65-5 1.1-6-1.9-3.35-1.25 1.1-1.8 1.95-1.8 2.95 0 2.15.5 3 1.7 3 .9 0 1.25-.55 2-2.6zm-72.85-1.25c-2.15-7.8-2.1-7.15-.9-12.3 1.35-5.6 2.85-8.55 4.45-8.75.95-.15 1.1.05 1.1 1.65 0 1 .35 2.5.8 3.4 1.7 3.25 6.65 10.15 8.05 11.2 2.1 1.5 10.05 5.65 10.95 5.65 1.1 0 1.45-1.4.55-2.4-.4-.45-1.45-3-2.35-5.6-.85-2.6-1.85-5.3-2.2-6s-1-3.05-1.5-5.25c-.45-2.2-1.15-5.05-1.55-6.35-.75-2.1999-.7-2.4499.55-5.9999.75-2 1.85-4.55 2.5-5.7 1.75-2.95 7.85-8.7 9.3-8.7.6 0 1.9-.45 2.8-1 1.35-.85 2.7-1.05 7.95-1.2 6.4-.15 7.85-.65 5.6-1.8-1.55-.85-11-.15-14.2 1.05-1.35.5-3.05.95-3.75.95-1.95 0-7.25 5.1-10.65 10.25-1.65 2.45-2.8 3.95-2.6 3.25.65-2.45 2.85-6.5 4.6-8.6 2.7-3.3 7.2-6.85 8.65-6.9 1.6 0 8-1.65 8-2.05 0-.15-.75-.7-1.65-1.15-1.55-.85-1.8-.85-6.5.15-2.65.6-5.5 1.05-6.35 1.05-1.8 0-5.6 3.25-7.95 6.85-1.65 2.5-3.35 7.2-3.85 10.8-.3 2.15-.65 2.75-1.3 2.1-.35-.4.5-6.15 1.35-8.6 2.1-6.15 6.95-12.2 10.35-12.9.9-.15 2.95-.75 4.55-1.3 3.7-1.25 8.35-1.25 11.05 0 5.95 2.7 6.95 3 7.5 2.1.25-.4-2.7-2.75-7.3-5.8-2.85-1.85-10.55-4.25-13.6-4.25-5.65 0-10.95 1.05-15.05 3-5.25 2.5-13.2 8.75-14 11.15-.3.95-1.65 3.3-2.95 5.25-2.25 3.4-3.4 6.55-4.9 13.6-2.1 9.6499 1.85 20.7999 9.7 27.4499 3.05 2.6 5.25 3.35 4.75 1.7zm53.85-.95c.15-.35-.3-1.9-.95-3.45-.9-2-1.5-2.75-2.25-2.75-.7 0-1 .3-1 1.15.05 2.15.9 5.5 1.5 5.85.85.5 2.35.05 2.7-.8zm74.35-2.3c2.55-2.6 3.05-3.25 4.25-5.15.5-.8 1.4-2.1 2-2.85s1.6-3 2.25-5c1.4-4.55 1.55-14.2499.25-16.7999-.4-.8-.95-2.45-1.1-3.65-.5-2.9-1.85-5.9-3.95-8.7-.95-1.25-1.75-2.45-1.75-2.65 0-.6-7.5-8-9.15-9.05-1.85-1.1-4.6-2.15-9.6-3.65-4.15-1.25-13.7-1.75-16.6-.9-1.05.3-3.5 1-5.5 1.5-3.45.95-6.85 2.6-7.9 3.8-.25.3-1.75 1.5-3.25 2.6-4 3-8.35 7.1-7.55 7.1.4 0 1.4-.2 2.25-.5 9.15-2.8 8.7-2.75 12.1-1.85 4.1 1.1 5.8 1.05 6.85-.15 1.15-1.35 1.8-1.3 5.6.8 4 2.2 9.55 8 10.3 10.85.75 2.8.3 4.05-.65 1.85s-5.6-7.6-8.05-9.35c-1.7-1.2-3.35-1.3-3.35-.15 0 .3.6.75 1.4 1.05.75.3 2.1 1.25 3.05 2.1 1.85 1.75 5.8 9.65 6.35 12.7.2 1.05.85 2.55 1.5 3.2999.65.8 1.2 1.9 1.2 2.45 0 .75.25.95 1 .75.7-.15 1 0 1 .55 0 .4-.1.65-.3.5-.15-.15-1.2.2-2.35.8-1.7.9-2.15 1.45-2.25 2.7-.15 1.4 0 1.6 1.5 2 1.55.4 1.65.55 1.65 2.65 0 2.4 0 2.4-4.2 1.85-.65-.1-1.35.15-1.55.6l-1.75 3.5c-.8 1.5-1.7 3.1-2.05 3.55-1.1 1.25-.8 1.95.9 1.95 2.9 0 10.25-6.45 13.6-11.95.25-.35.55-1.5.65-2.5.3-2.15 1.45-6.85 1.9-7.55.45-.75 1.1-.6 2.1.4.5.5 1.8 1.6 2.95 2.5 3.7 2.85 5.15 9.65 3.45 16.15-1.2 4.6-.4 5.1 2.8 1.85zm-57.65-.35c.85-.85 1.6-1.85 1.6-2.3 0-1-1.8-4.55-2.5-5-.9-.55-4.5 2.15-4.5 3.35 0 1.75 2 5.4 2.95 5.4.45 0 1.55-.65 2.45-1.45zm-11.1-1.85c1.2-1 2.2-2.05 2.2-2.35 0-1-2.25-5.3-2.95-5.6-.8-.3-2.2.5-4.7 2.85l-1.8 1.7 1.3 2.6c1.6 3.2 2.8 3.4 5.95.8zm15.75-3.4c.05-.3.15-1.85.2-3.4.15-2.7.05-2.9-.95-2.9-1.45.05-3.3 1.7-3.3 3 0 1.35 1.3 3.85 2.1 4.15.9.3 1.9-.15 1.95-.85zm-9.2-2.15c2.1-1.35 2.2-1.45 2-3.5-.15-1.2-.5-2.5-.85-2.9-1.7-2.05-7 .7-6.35 3.3.4 1.4 2.2 4.45 2.65 4.45.2 0 1.3-.6 2.55-1.35zm-10.8-2.7c1.4-1.15 2.4-2.2 2.35-2.4-.1-.15-.5-.9-.85-1.65-.45-.9-1.1-1.4-1.8-1.4-1.35 0-6.25 5.05-6.25 6.45 0 2.25 3.25 1.8 6.55-1zm17.75-3.25c2-1.55 2.15-2.65.55-4.45l-1.1-1.35-2.15.85c-1.15.5-2.15 1.1-2.15 1.45-.25 2.2 1.05 4.8 2.35 4.8.4 0 1.55-.6 2.5-1.3zm-11.8-1.55c0-.5-.7-3.1-1.6-5.8-1.9-5.8499-4.6-9.4999-6.85-9.2499-1.1.15-1.3.4-1.45 2.1-.15 1.45.1 2.25 1.05 3.25.65.7 1.6 1.9999 2.1 2.7999.5.85 1.3 1.75 1.75 2.1.5.35.9 1.2.9 1.9 0 1.85 1.4 3.75 2.85 3.75.85 0 1.25-.3 1.25-.85zm-8.4-1.6c1.55-1.4 1.6-1.45.75-2.7-1-1.55-2.8-2.25-3.4-1.3-.25.4-.45 1.75-.45 3.1 0 2.8.7 3.05 3.1.9zm16.15-3.15c2.35-1.15 2.75-2.05 1.75-3.9499-1.5-2.7-6.1 1.1499-5.55 4.6999.1.65 1.45.4 3.8-.75zm-9.5-10.8999c.45-.75-1.75-5.9-2.65-6.25-.45-.15-.95 0-1.2.35-.65 1.05-.45 4.1.4 5.3.8 1.15 2.9 1.5 3.45.6zm3.55-1.9c.75-.5 2.2-4.65 2.2-6.3 0-1.15-.2-1.35-1.1-1.2-1.1.15-1.25.5-2.35 5.5-.5 2.25-.1 2.95 1.25 2zm-2.05-10.1c0-.9-1.65-1.3-2.4-.55-.45.45-.4.7.15 1.05 1.05.7 2.25.4 2.25-.5zm3.5-7.75c.85-1.65 2.2-4 3.05-5.25.9-1.25 2.75-4.15 4.15-6.5s3.6-5.7 4.9-7.5c2.85-4 6-10.6 6.6-13.85.3-1.35.75-3.5 1.05-4.75.5-1.95.4-3.05-.75-8.1-1.5-6.8-1.95-8.1-2.85-8.45-1-.35-2.4.55-2.4 1.6 0 1.4-5.1 8.45-7.1 9.8-1.45.95-2 1.85-2.85 4.45-.6 1.8-1.05 3.6-1.05 4.05 0 .5-.45.75-1.3.75-1.15 0-1.25-.15-.95-1.1.75-2.5 1.3-9.4 1.05-13.7-.2-3.05-.75-5.8-1.7-8.5-2.75-7.85004-4.45-8.70004-7-3.45-.9 1.75-1.85 4.3-2.15 5.6s-.75 3.2-1.05 4.2c-.65 2.25-.75 10.1-.25 15.1.35 3.6.35 3.9-.5 3.75-.6-.1-1.05-.95-1.45-2.9-1.15-5.65-2.5-8.05-5.95-11-1.8-1.5-3.8-3.7-4.5-4.85-2-3.3-3.05-2.85-4.45 1.8-1.1 3.7-1 8.3.2 12.15.55 1.7 1 3.85 1 4.75 0 2.3 7 15.6 10.2 19.5 3.1 3.75 4.9 6.9 6.5 11.3.95 2.65 1.3 3.1 2.35 3.1.8 0 1.15-.25 1.1-.75-.45-2.95-1.35-6.15-2.45-8.5-.7-1.5-1.85-3.85-2.5-5.25-3-6.35-5.7-12.8-5.7-13.55 0-.7.1-.7.8-.15.9.75 4.2 7.1 4.2 8.1 0 .4.55 1.7 1.2 2.9s1.55 3.35 2 4.8c.9 2.8 1.85 3.55 3 2.35.6-.55.75-2.15.7-7.85-.05-8.55.5-15.45 1.25-15.2.55.15.55.7.1 15.75-.2 7.25-.15 9.15.35 9 .35-.1 2.8-4.5 5.45-9.8 5.2-10.45 5.65-11.1 6.55-10.2.4.4 0 1.5-1.65 4.45-2.6 4.6-4.55 8.6-5.5 11.4-.35 1.1-1.05 2.45-1.55 3.05-.5.55-.9 1.25-.9 1.6 0 .3-.45 1.4-.95 2.45-.55 1.05-1.15 3-1.35 4.3-.3 2.2-.25 2.45.6 2.25.55-.1 1.55-1.4 2.45-3.15zm-12.75-1.15c0-.8-1.6-2.6-2.3-2.6-.95 0-.9.95.15 2.1.8.9 2.15 1.25 2.15.5z"/><path d="m115.3 119.35c-.65-.5-.85-1.2-.7-2.85.15-2.1.25-2.25 1.75-2.4 1.8-.2 3.15 1.25 3.15 3.4 0 2.3-2.2 3.3-4.2 1.85zm-23.45-3.7c-.9-1.6-.75-3.1.4-4.35 1.45-1.55 1.95-1.6 3.25-.3 1.25 1.25 1.25 2.05-.05 3.7-.95 1.2-3.1 1.8-3.6.95zm20.5-8.5c-.15-.25-.4-1.45-.6-2.7-.35-2.2-.3-2.35.9-2.55 1.85-.35 2.2.05 2.6 3l.35 2.6h-1.5c-.85 0-1.65-.15-1.75-.35zm-19.75-6c.15-2.3001.2-2.4001 1.8-2.5501 1.8-.2 2.4.6 1.9 2.5501-.25 1.05-2.1 2.35-3.35 2.35-.3 0-.45-1-.35-2.35zm21.4-5.3501c0-.4.25-.9.5-1.05.3-.15.5.05.5.45s-.2.9-.5 1.05c-.25.15-.5-.05-.5-.45zm-8-21.55c0-1.05 1.2-2.15 2.55-2.45.9-.15 2-.6 2.4-.95.85-.65 4.7-1.95 8.55-2.8 2.55-.55 10.05.35 10 1.2 0 .3-2.7.6-6.35.75-6.3.25-10.1 1.1-12.15 2.8-.4.3-1.3.75-2 .95-.7.15-1.65.45-2.1.55-.5.15-.9.1-.9-.05zm123 36.7501c-1.45-1.45-1.75-3.35-.85-5.3 1.05-2.15 2.9-2.35 4.15-.45 1.15 1.75 1.55 5.7.65 6.3-1.15.75-2.9.5-3.95-.55zm-.55-11.1001c-1.05-3.4-.85-4.5.8-5 1.15-.3 1.65-.2 2.15.45.9 1.25.75 2.55-.35 2.9-.55.15-1.1.6-1.25 1-.2.6-1.2 1.0501-1.35.65zm-9.8-2.5c-.3-.35-1.1-2.15-1.8-4.05-2.35-6.2-4.6-9.6-8.75-13.15-5.05-4.3-7.2-5.25-15.15-6.8-2.4-.5-3.2-.4-6.3.5-1.95.6-4.15 1.1-4.85 1.1-2 0-1.6-1.4.6-1.95 6.9-1.8 8.55-2.15 10.2-2.15 1 .05 2.5.4 3.35.8.8.45 2.05.8 2.7.8 3.65 0 11.2 5.55 14.8 10.9 2.15 3.2 6 11.15 6.4 13.25.3 1.4-.35 1.8-1.2.75z"/><path d="m221 80c0-1.5-3.85-5.65-6.95-7.45-6.8-3.95-11.65-4.8-22.2-3.8-2.2.2-3.85.2-3.85-.1 0-.95 6.75-2.15 12.15-2.15 4.95 0 5.7.15 10 1.8 2.5 1 5.05 2.2 5.6 2.7s1.5 1.15 2.15 1.45c1.8.95 4.1 4.5 4.1 6.4 0 .9-.2 1.65-.5 1.65-.25 0-.5-.2-.5-.5zm-47.15-38.75c-1.1-1.55-.75-2.25 1.1-2.25 2 0 2.75 1 1.75 2.4s-1.75 1.35-2.85-.15zm-29.45-1.05c-.55-1.1-.5-1.4.35-2 1.4-1.05 2.2-.85 2.8.65.65 1.8.25 2.65-1.3 2.65-.9 0-1.45-.4-1.85-1.3zm32.25-3.6c-.3-.2-.7-1.45-.9-2.75-.3-1.95-.2-2.6.5-3.35 1.9-2.1 4.25-.5 4.25 2.85 0 1.1-.3 2.25-.6 2.55-1 .75-2.6 1.1-3.25.7zm-19.25-2.4c-.2-2.55.4-3.35 2.2-3.1 2.05.3 1.8 3.85-.35 4.8-.7.35-1.4.6-1.45.6-.1 0-.3-1.05-.4-2.3zm-15.85 1.1c-.35-.4-.55-1.75-.45-3.15.15-2.05.3-2.4 1.25-2.55 1.55-.2 2.75 1.8 2.55 4.25-.15 1.6-.35 1.9-1.45 2.05-.7.1-1.55-.2-1.9-.6zm16.5-10.25c-1.05-.7-1.3-4.25-.3-5.25 1.1-1.1 1.9-1 3.65.45 1.15.95 1.4 1.5 1.2 2.6-.1.8-.45 1.7-.75 2.05-.55.7-2.75.8-3.8.15zm-116.55 173.65c-1.05-2.65 0-9.7 1.85-12.5 1.35-2.05 9-7 10.2-6.6.25.1-.7 1.4-2.2 2.9-2.7 2.85-5.4 7.05-7 11-.65 1.6-.85 2.85-.6 4.35.3 1.95.2 2.15-.75 2.15-.65 0-1.2-.45-1.5-1.3z"/></g></svg>